<svg width="340" height="90" viewBox="0 0 340 90" fill="none" xmlns="http://www.w3.org/2000/svg">
<path d="M105.906 52L112.063 14.9091H126.697C129.498 14.9091 131.804 15.4041 133.615 16.3942C135.438 17.3842 136.718 18.7908 137.455 20.614C138.203 22.4251 138.378 24.5621 137.98 27.0252C137.569 29.4883 136.682 31.6012 135.317 33.364C133.965 35.1268 132.202 36.4851 130.029 37.4389C127.868 38.3807 125.363 38.8516 122.513 38.8516H112.715L113.802 32.549H122.314C123.811 32.549 125.091 32.3437 126.153 31.9332C127.216 31.5227 128.055 30.907 128.671 30.0859C129.299 29.2649 129.709 28.2447 129.902 27.0252C130.108 25.7816 130.035 24.7433 129.685 23.9102C129.335 23.065 128.701 22.4251 127.783 21.9904C126.866 21.5437 125.658 21.3203 124.161 21.3203H118.873L113.748 52H105.906ZM128.725 35.1207L135.154 52H126.498L120.267 35.1207H128.725ZM153.29 43.6392L155.17 32.3636H160.616L157.343 52H152.114L152.702 48.4332H152.498C151.893 49.5838 151.01 50.5085 149.851 51.2074C148.692 51.9062 147.376 52.2557 145.901 52.2557C144.589 52.2557 143.481 51.9574 142.577 51.3608C141.682 50.7642 141.047 49.9162 140.672 48.8168C140.297 47.7173 140.233 46.4006 140.481 44.8665L142.577 32.3636H148.023L146.106 43.8949C145.927 45.054 146.089 45.9702 146.591 46.6435C147.094 47.3168 147.861 47.6534 148.893 47.6534C149.549 47.6534 150.184 47.5043 150.797 47.206C151.42 46.8991 151.956 46.4474 152.408 45.8509C152.86 45.2543 153.154 44.517 153.29 43.6392ZM169.063 40.6477L167.171 52H161.737L165.01 32.3636H170.188L169.625 35.8281H169.843C170.465 34.6776 171.343 33.7699 172.476 33.1051C173.618 32.4403 174.918 32.108 176.375 32.108C177.739 32.108 178.877 32.4062 179.789 33.0028C180.709 33.5994 181.357 34.4474 181.732 35.5469C182.115 36.6463 182.179 37.9631 181.923 39.4972L179.827 52H174.381L176.311 40.4688C176.507 39.267 176.354 38.3295 175.851 37.6562C175.357 36.9744 174.56 36.6335 173.46 36.6335C172.727 36.6335 172.054 36.7912 171.441 37.1065C170.827 37.4219 170.311 37.8821 169.894 38.4872C169.485 39.0838 169.208 39.804 169.063 40.6477ZM191.457 40.6477L189.565 52H184.132L187.405 32.3636H192.582L192.02 35.8281H192.237C192.859 34.6776 193.737 33.7699 194.871 33.1051C196.013 32.4403 197.312 32.108 198.77 32.108C200.133 32.108 201.271 32.4062 202.183 33.0028C203.104 33.5994 203.751 34.4474 204.126 35.5469C204.51 36.6463 204.574 37.9631 204.318 39.4972L202.221 52H196.775L198.706 40.4688C198.902 39.267 198.748 38.3295 198.246 37.6562C197.751 36.9744 196.954 36.6335 195.855 36.6335C195.122 36.6335 194.449 36.7912 193.835 37.1065C193.221 37.4219 192.706 37.8821 192.288 38.4872C191.879 39.0838 191.602 39.804 191.457 40.6477ZM215.386 52.3835C213.383 52.3835 211.725 51.9574 210.413 51.1051C209.1 50.2443 208.176 49.0511 207.639 47.5256C207.11 45.9915 207.012 44.206 207.345 42.169C207.669 40.1577 208.342 38.3977 209.365 36.8892C210.387 35.3807 211.687 34.2088 213.264 33.3736C214.84 32.5298 216.617 32.108 218.595 32.108C220.589 32.108 222.242 32.5384 223.555 33.3991C224.867 34.2514 225.792 35.4446 226.329 36.9787C226.866 38.5128 226.968 40.2983 226.636 42.3352C226.303 44.3381 225.622 46.0938 224.59 47.6023C223.559 49.1108 222.259 50.2869 220.691 51.1307C219.123 51.9659 217.355 52.3835 215.386 52.3835ZM215.923 48.1648C216.843 48.1648 217.657 47.9048 218.365 47.3849C219.08 46.8565 219.673 46.1406 220.142 45.2372C220.619 44.3253 220.951 43.294 221.139 42.1435C221.326 41.0099 221.339 40.0043 221.177 39.1264C221.015 38.2401 220.674 37.5412 220.154 37.0298C219.643 36.5185 218.94 36.2628 218.045 36.2628C217.124 36.2628 216.306 36.527 215.59 37.0554C214.874 37.5753 214.282 38.2912 213.813 39.2031C213.345 40.1151 213.017 41.1506 212.829 42.3097C212.65 43.4347 212.637 44.4403 212.791 45.3267C212.944 46.2045 213.281 46.8991 213.801 47.4105C214.32 47.9134 215.028 48.1648 215.923 48.1648Z" fill="white"/>
<path d="M231.609 27.9801L232.461 22.9091H256.353L255.501 27.9801H246.595L242.617 52H236.538L240.515 27.9801H231.609ZM253.079 52L256.715 30.1818H262.582L261.943 33.9886H262.17C262.795 32.6345 263.633 31.6117 264.684 30.9205C265.745 30.2197 266.886 29.8693 268.107 29.8693C268.41 29.8693 268.728 29.8883 269.059 29.9261C269.4 29.9545 269.703 30.0019 269.968 30.0682L269.059 35.4517C268.794 35.357 268.415 35.2812 267.923 35.2244C267.44 35.1581 266.981 35.125 266.545 35.125C265.664 35.125 264.845 35.3191 264.088 35.7074C263.33 36.0862 262.691 36.6165 262.17 37.2983C261.659 37.9801 261.322 38.7661 261.161 39.6562L259.13 52H253.079ZM274.986 52.4119C273.603 52.4119 272.405 52.1705 271.392 51.6875C270.388 51.1951 269.65 50.4659 269.176 49.5C268.703 48.5341 268.584 47.3362 268.821 45.9062C269.03 44.6941 269.423 43.6809 270 42.8665C270.587 42.0426 271.302 41.3797 272.145 40.8778C272.988 40.3759 273.921 39.9924 274.943 39.7273C275.976 39.4621 277.041 39.2822 278.139 39.1875C279.408 39.0549 280.441 38.9271 281.236 38.804C282.041 38.6809 282.642 38.5057 283.04 38.2784C283.438 38.0417 283.679 37.6913 283.764 37.2273V37.142C283.906 36.2519 283.741 35.5606 283.267 35.0682C282.803 34.5663 282.06 34.3153 281.037 34.3153C279.958 34.3153 279.039 34.5521 278.281 35.0256C277.533 35.4991 276.998 36.1004 276.676 36.8295L271.165 36.375C271.657 35.0492 272.401 33.9034 273.395 32.9375C274.399 31.9621 275.606 31.214 277.017 30.6932C278.428 30.1629 280.01 29.8977 281.762 29.8977C282.974 29.8977 284.105 30.0398 285.156 30.3239C286.217 30.608 287.131 31.0483 287.898 31.6449C288.674 32.2415 289.233 33.0085 289.574 33.946C289.924 34.8741 289.995 35.9867 289.787 37.2841L287.33 52H281.591L282.102 48.9744H281.932C281.468 49.6562 280.9 50.2576 280.227 50.7784C279.555 51.2898 278.783 51.6922 277.912 51.9858C277.041 52.2699 276.066 52.4119 274.986 52.4119ZM277.415 48.2358C278.296 48.2358 279.105 48.0606 279.844 47.7102C280.592 47.3504 281.208 46.8674 281.691 46.2614C282.183 45.6553 282.495 44.9687 282.628 44.2017L282.997 41.8864C282.808 42.0095 282.533 42.1184 282.173 42.2131C281.823 42.3078 281.44 42.3977 281.023 42.483C280.616 42.5587 280.204 42.6297 279.787 42.696C279.37 42.7528 278.996 42.8097 278.665 42.8665C277.936 42.9706 277.282 43.1364 276.705 43.3636C276.127 43.5909 275.658 43.8987 275.298 44.2869C274.939 44.6657 274.716 45.1392 274.631 45.7074C274.498 46.5312 274.692 47.161 275.213 47.5966C275.744 48.0227 276.477 48.2358 277.415 48.2358ZM301.825 52.4261C299.581 52.4261 297.735 51.9527 296.286 51.0057C294.846 50.0492 293.838 48.7235 293.26 47.0284C292.692 45.3333 292.593 43.3826 292.962 41.1761C293.322 38.9413 294.075 36.9811 295.22 35.2955C296.366 33.6004 297.82 32.2794 299.581 31.3324C301.352 30.3759 303.341 29.8977 305.547 29.8977C307.45 29.8977 309.06 30.2434 310.377 30.9347C311.693 31.6259 312.659 32.5966 313.274 33.8466C313.89 35.0966 314.098 36.5644 313.899 38.25H308.203C308.213 37.1705 307.933 36.2945 307.365 35.6222C306.797 34.9498 305.964 34.6136 304.865 34.6136C303.918 34.6136 303.047 34.8693 302.252 35.3807C301.466 35.8826 300.798 36.6165 300.249 37.5824C299.709 38.5483 299.33 39.7178 299.112 41.0909C298.885 42.483 298.88 43.6667 299.098 44.642C299.316 45.6174 299.733 46.3608 300.348 46.8722C300.964 47.3835 301.74 47.6392 302.678 47.6392C303.378 47.6392 304.027 47.4972 304.624 47.2131C305.23 46.929 305.76 46.517 306.215 45.9773C306.669 45.428 307.02 44.7699 307.266 44.0028H312.976C312.588 45.679 311.882 47.1468 310.86 48.4062C309.846 49.6657 308.573 50.6506 307.039 51.3608C305.504 52.071 303.767 52.4261 301.825 52.4261ZM322.021 45.7216L323.228 38.4631H324.109L332.504 30.1818H339.45L328.257 41.1477H326.808L322.021 45.7216ZM315.501 52L320.33 22.9091H326.382L321.552 52H315.501ZM329.137 52L324.308 42.4972L329.038 38.2216L336.225 52H329.137Z" fill="#53B9FF"/>
<path d="M117.465 78H116.421L120.389 67.0909H121.455L125.423 78H124.379L120.959 68.3853H120.885L117.465 78ZM118.216 73.8185H123.628V74.7134H118.216V73.8185ZM132.593 71.6133L131.724 71.8583C131.639 71.6133 131.518 71.3913 131.362 71.1925C131.206 70.9936 131.002 70.8356 130.75 70.7184C130.501 70.6012 130.192 70.5426 129.823 70.5426C129.269 70.5426 128.814 70.674 128.459 70.9368C128.104 71.1996 127.926 71.5387 127.926 71.9542C127.926 72.3058 128.047 72.5916 128.289 72.8118C128.534 73.0284 128.91 73.2006 129.418 73.3285L130.654 73.6321C131.339 73.799 131.852 74.0636 132.193 74.4258C132.538 74.788 132.71 75.2425 132.71 75.7894C132.71 76.2511 132.582 76.6612 132.326 77.0199C132.071 77.3786 131.714 77.6609 131.256 77.8668C130.801 78.0692 130.274 78.1705 129.674 78.1705C128.875 78.1705 128.216 77.9911 127.697 77.6325C127.179 77.2702 126.847 76.7482 126.701 76.0664L127.612 75.8427C127.729 76.3292 127.958 76.6967 128.299 76.9453C128.644 77.1939 129.097 77.3182 129.658 77.3182C130.286 77.3182 130.789 77.1779 131.165 76.8974C131.542 76.6133 131.73 76.2582 131.73 75.832C131.73 75.5018 131.62 75.2248 131.4 75.0011C131.179 74.7738 130.846 74.6069 130.398 74.5004L129.061 74.1808C128.351 74.0103 127.825 73.7404 127.484 73.3711C127.143 73.0018 126.973 72.5437 126.973 71.9968C126.973 71.5458 127.096 71.1499 127.341 70.8089C127.586 70.4645 127.923 70.1946 128.353 69.9993C128.782 69.804 129.272 69.7063 129.823 69.7063C130.572 69.7063 131.17 69.8768 131.618 70.2177C132.069 70.555 132.394 71.0202 132.593 71.6133ZM140.283 71.6133L139.415 71.8583C139.33 71.6133 139.209 71.3913 139.053 71.1925C138.896 70.9936 138.692 70.8356 138.44 70.7184C138.191 70.6012 137.883 70.5426 137.513 70.5426C136.959 70.5426 136.505 70.674 136.15 70.9368C135.794 71.1996 135.617 71.5387 135.617 71.9542C135.617 72.3058 135.738 72.5916 135.979 72.8118C136.224 73.0284 136.601 73.2006 137.108 73.3285L138.344 73.6321C139.03 73.799 139.543 74.0636 139.884 74.4258C140.228 74.788 140.4 75.2425 140.4 75.7894C140.4 76.2511 140.272 76.6612 140.017 77.0199C139.761 77.3786 139.404 77.6609 138.946 77.8668C138.492 78.0692 137.964 78.1705 137.364 78.1705C136.565 78.1705 135.906 77.9911 135.388 77.6325C134.869 77.2702 134.537 76.7482 134.392 76.0664L135.303 75.8427C135.42 76.3292 135.649 76.6967 135.99 76.9453C136.334 77.1939 136.787 77.3182 137.348 77.3182C137.977 77.3182 138.479 77.1779 138.856 76.8974C139.232 76.6133 139.42 76.2582 139.42 75.832C139.42 75.5018 139.31 75.2248 139.09 75.0011C138.87 74.7738 138.536 74.6069 138.089 74.5004L136.752 74.1808C136.041 74.0103 135.516 73.7404 135.175 73.3711C134.834 73.0018 134.663 72.5437 134.663 71.9968C134.663 71.5458 134.786 71.1499 135.031 70.8089C135.276 70.4645 135.613 70.1946 136.043 69.9993C136.473 69.804 136.963 69.7063 137.513 69.7063C138.263 69.7063 138.861 69.8768 139.308 70.2177C139.759 70.555 140.084 71.0202 140.283 71.6133ZM145.784 78.1705C145.021 78.1705 144.36 77.9929 143.803 77.6378C143.245 77.2791 142.814 76.7837 142.508 76.1516C142.206 75.516 142.056 74.7844 142.056 73.957C142.056 73.1332 142.206 72.4016 142.508 71.7624C142.814 71.1197 143.235 70.6172 143.771 70.255C144.311 69.8892 144.934 69.7063 145.64 69.7063C146.084 69.7063 146.512 69.788 146.924 69.9513C147.336 70.1112 147.705 70.358 148.032 70.6918C148.362 71.022 148.623 71.4393 148.815 71.9435C149.007 72.4442 149.103 73.0373 149.103 73.7227V74.1914H142.711V73.3551H148.133C148.133 72.8295 148.027 72.3572 147.814 71.9382C147.604 71.5156 147.311 71.1818 146.935 70.9368C146.562 70.6918 146.131 70.5692 145.64 70.5692C145.122 70.5692 144.666 70.7077 144.271 70.9847C143.877 71.2617 143.568 71.6275 143.345 72.082C143.124 72.5366 143.013 73.0337 143.009 73.5735V74.0742C143.009 74.7241 143.121 75.2923 143.345 75.7788C143.572 76.2617 143.893 76.6364 144.309 76.9027C144.724 77.169 145.216 77.3022 145.784 77.3022C146.171 77.3022 146.51 77.2418 146.802 77.1211C147.096 77.0004 147.343 76.8388 147.542 76.6364C147.744 76.4304 147.897 76.2049 148 75.9599L148.9 76.2528C148.776 76.5973 148.572 76.9151 148.288 77.2063C148.007 77.4975 147.656 77.7319 147.233 77.9094C146.814 78.0835 146.331 78.1705 145.784 78.1705ZM151.192 78V69.8182H152.114V71.0753H152.199C152.362 70.6527 152.634 70.3207 153.014 70.0792C153.397 69.8342 153.857 69.7116 154.394 69.7116C154.958 69.7116 155.422 69.8448 155.784 70.1112C156.15 70.3739 156.423 70.7362 156.604 71.1978H156.673C156.858 70.7433 157.158 70.3828 157.574 70.1165C157.993 69.8466 158.5 69.7116 159.097 69.7116C159.857 69.7116 160.457 69.9513 160.897 70.4308C161.338 70.9066 161.558 71.6026 161.558 72.5188V78H160.61V72.5188C160.61 71.8725 160.445 71.3878 160.114 71.0646C159.784 70.7415 159.349 70.5799 158.809 70.5799C158.184 70.5799 157.703 70.7717 157.366 71.1552C157.028 71.5387 156.86 72.0252 156.86 72.6147V78H155.89V72.4336C155.89 71.8796 155.736 71.4322 155.427 71.0913C155.118 70.7504 154.683 70.5799 154.122 70.5799C153.745 70.5799 153.406 70.6722 153.104 70.8569C152.806 71.0415 152.57 71.299 152.396 71.6293C152.226 71.956 152.14 72.3324 152.14 72.7585V78H151.192ZM164.265 78V67.0909H165.219V71.3789H165.304C165.411 71.1339 165.563 70.8817 165.762 70.6225C165.964 70.3633 166.229 70.1467 166.556 69.9727C166.886 69.7951 167.301 69.7063 167.802 69.7063C168.473 69.7063 169.063 69.8839 169.571 70.239C170.078 70.5906 170.474 71.0842 170.759 71.7198C171.043 72.3519 171.185 73.0888 171.185 73.9304C171.185 74.7756 171.043 75.516 170.759 76.1516C170.478 76.7873 170.084 77.2827 169.576 77.6378C169.072 77.9929 168.486 78.1705 167.818 78.1705C167.321 78.1705 166.906 78.0817 166.572 77.9041C166.241 77.7266 165.975 77.5082 165.773 77.2489C165.57 76.9862 165.414 76.7305 165.304 76.4819H165.187V78H164.265ZM165.203 73.9144C165.203 74.5749 165.3 75.1609 165.496 75.6722C165.695 76.18 165.979 76.5795 166.348 76.8707C166.721 77.1584 167.172 77.3022 167.701 77.3022C168.244 77.3022 168.704 77.1531 169.081 76.8548C169.457 76.5529 169.743 76.1463 169.938 75.6349C170.134 75.1236 170.231 74.5501 170.231 73.9144C170.231 73.2859 170.134 72.7195 169.938 72.2152C169.746 71.7109 169.462 71.3114 169.086 71.0167C168.71 70.7184 168.248 70.5692 167.701 70.5692C167.168 70.5692 166.716 70.7131 166.343 71.0007C165.973 71.2848 165.691 71.679 165.496 72.1832C165.3 72.6839 165.203 73.261 165.203 73.9144ZM174.216 67.0909V78H173.267V67.0909H174.216ZM177.385 81.0682C177.197 81.0682 177.021 81.0504 176.858 81.0149C176.694 80.9794 176.565 80.9403 176.469 80.8977L176.724 80.0614C177.048 80.1609 177.335 80.1964 177.587 80.168C177.839 80.1431 178.063 80.0295 178.259 79.8271C178.454 79.6282 178.628 79.3228 178.781 78.9109L179.079 78.0799L176.069 69.8182H177.097L179.526 76.7482H179.601L182.03 69.8182H183.058L179.596 79.2944C179.45 79.6886 179.271 80.017 179.058 80.2798C178.844 80.5462 178.598 80.7433 178.317 80.8711C178.04 81.0025 177.729 81.0682 177.385 81.0682ZM189.329 78V67.0909H192.85C193.624 67.0909 194.27 67.2401 194.789 67.5384C195.311 67.8331 195.703 68.2344 195.966 68.7422C196.232 69.25 196.365 69.8217 196.365 70.4574C196.365 71.093 196.234 71.6665 195.971 72.1779C195.708 72.6857 195.318 73.0888 194.799 73.3871C194.281 73.6818 193.636 73.8292 192.866 73.8292H190.096V72.9343H192.839C193.411 72.9343 193.885 72.8278 194.261 72.6147C194.638 72.3981 194.918 72.1033 195.103 71.7305C195.291 71.3576 195.385 70.9332 195.385 70.4574C195.385 69.9815 195.291 69.5572 195.103 69.1843C194.918 68.8114 194.636 68.5185 194.256 68.3054C193.88 68.0923 193.402 67.9858 192.823 67.9858H190.325V78H189.329ZM198.507 78V69.8182H199.428V71.0753H199.497C199.661 70.6634 199.945 70.3313 200.35 70.0792C200.758 69.8235 201.22 69.6957 201.735 69.6957C201.813 69.6957 201.9 69.6974 201.996 69.701C202.092 69.7045 202.171 69.7081 202.235 69.7116V70.6758C202.193 70.6687 202.118 70.658 202.012 70.6438C201.905 70.6296 201.79 70.6225 201.665 70.6225C201.239 70.6225 200.859 70.7131 200.525 70.8942C200.195 71.0717 199.934 71.3185 199.742 71.6346C199.551 71.9506 199.455 72.3111 199.455 72.7159V78H198.507ZM206.784 78.1705C206.078 78.1705 205.453 77.9911 204.909 77.6325C204.37 77.2738 203.947 76.7784 203.642 76.1463C203.336 75.5107 203.184 74.7773 203.184 73.9464C203.184 73.1083 203.336 72.3714 203.642 71.7358C203.947 71.0966 204.37 70.5994 204.909 70.2443C205.453 69.8857 206.078 69.7063 206.784 69.7063C207.491 69.7063 208.114 69.8857 208.654 70.2443C209.194 70.603 209.616 71.1001 209.922 71.7358C210.231 72.3714 210.385 73.1083 210.385 73.9464C210.385 74.7773 210.233 75.5107 209.927 76.1463C209.622 76.7784 209.197 77.2738 208.654 77.6325C208.114 77.9911 207.491 78.1705 206.784 78.1705ZM206.784 77.3022C207.353 77.3022 207.834 77.1495 208.228 76.8441C208.622 76.5387 208.92 76.1321 209.123 75.6243C209.329 75.1165 209.432 74.5572 209.432 73.9464C209.432 73.3356 209.329 72.7745 209.123 72.2631C208.92 71.7518 208.622 71.3416 208.228 71.0327C207.834 70.7237 207.353 70.5692 206.784 70.5692C206.22 70.5692 205.739 70.7237 205.341 71.0327C204.947 71.3416 204.647 71.7518 204.441 72.2631C204.238 72.7745 204.137 73.3356 204.137 73.9464C204.137 74.5572 204.238 75.1165 204.441 75.6243C204.647 76.1321 204.947 76.5387 205.341 76.8441C205.735 77.1495 206.216 77.3022 206.784 77.3022ZM215.412 78.1705C214.741 78.1705 214.153 77.9929 213.649 77.6378C213.145 77.2827 212.751 76.7873 212.467 76.1516C212.186 75.516 212.046 74.7756 212.046 73.9304C212.046 73.0888 212.186 72.3519 212.467 71.7198C212.751 71.0842 213.147 70.5906 213.654 70.239C214.162 69.8839 214.754 69.7063 215.428 69.7063C215.925 69.7063 216.339 69.7951 216.669 69.9727C217 70.1467 217.264 70.3633 217.463 70.6225C217.662 70.8817 217.816 71.1339 217.926 71.3789H218.012V67.0909H218.965V78H218.038V76.4819H217.926C217.816 76.7305 217.66 76.9862 217.458 77.2489C217.255 77.5082 216.987 77.7266 216.653 77.9041C216.323 78.0817 215.909 78.1705 215.412 78.1705ZM215.524 77.3022C216.053 77.3022 216.504 77.1584 216.877 76.8707C217.25 76.5795 217.534 76.18 217.729 75.6722C217.928 75.1609 218.028 74.5749 218.028 73.9144C218.028 73.261 217.93 72.6839 217.735 72.1832C217.539 71.679 217.255 71.2848 216.882 71.0007C216.51 70.7131 216.057 70.5692 215.524 70.5692C214.977 70.5692 214.516 70.7184 214.139 71.0167C213.766 71.3114 213.482 71.7109 213.287 72.2152C213.095 72.7195 212.999 73.2859 212.999 73.9144C212.999 74.5501 213.097 75.1236 213.292 75.6349C213.488 76.1463 213.772 76.5529 214.145 76.8548C214.521 77.1531 214.981 77.3022 215.524 77.3022ZM226.865 74.8732V69.8182H227.813V78H226.865V76.6417H226.79C226.598 77.0607 226.295 77.4105 225.879 77.6911C225.464 77.968 224.956 78.1065 224.356 78.1065C223.834 78.1065 223.37 77.9929 222.966 77.7656C222.561 77.5348 222.243 77.1974 222.012 76.7536C221.781 76.3097 221.666 75.7646 221.666 75.1183V69.8182H222.614V75.0597C222.614 75.6989 222.802 76.2138 223.179 76.6044C223.555 76.9915 224.038 77.185 224.627 77.185C224.997 77.185 225.352 77.0962 225.693 76.9187C226.034 76.7411 226.314 76.4819 226.534 76.141C226.755 75.7965 226.865 75.3739 226.865 74.8732ZM233.519 78.1705C232.788 78.1705 232.15 77.9876 231.607 77.6218C231.067 77.256 230.648 76.7553 230.35 76.1197C230.051 75.484 229.902 74.7596 229.902 73.9464C229.902 73.1261 230.053 72.3963 230.355 71.7571C230.66 71.1179 231.083 70.6172 231.623 70.255C232.163 69.8892 232.789 69.7063 233.503 69.7063C234.05 69.7063 234.545 69.8129 234.989 70.0259C235.433 70.2354 235.799 70.532 236.087 70.9155C236.378 71.2955 236.561 71.7393 236.635 72.2472H235.676C235.577 71.7855 235.337 71.3913 234.957 71.0646C234.581 70.7344 234.101 70.5692 233.519 70.5692C232.997 70.5692 232.535 70.7113 232.134 70.9954C231.733 71.2759 231.419 71.6683 231.191 72.1726C230.968 72.6733 230.856 73.2539 230.856 73.9144C230.856 74.5785 230.966 75.1662 231.186 75.6776C231.406 76.1854 231.715 76.5831 232.113 76.8707C232.514 77.1584 232.983 77.3022 233.519 77.3022C233.881 77.3022 234.212 77.2347 234.51 77.0998C234.812 76.9613 235.064 76.766 235.266 76.5138C235.472 76.2617 235.611 75.9616 235.682 75.6136H236.641C236.57 76.1072 236.394 76.5476 236.113 76.9347C235.836 77.3182 235.476 77.62 235.032 77.8402C234.592 78.0604 234.087 78.1705 233.519 78.1705ZM241.895 69.8182V70.6438H237.991V69.8182H241.895ZM239.211 67.858H240.164V75.864C240.164 76.2049 240.223 76.473 240.34 76.6683C240.457 76.8601 240.61 76.9968 240.798 77.0785C240.986 77.1566 241.187 77.1957 241.4 77.1957C241.524 77.1957 241.631 77.1886 241.72 77.1744C241.808 77.1566 241.886 77.1388 241.954 77.1211L242.156 77.9787C242.064 78.0142 241.95 78.0462 241.815 78.0746C241.68 78.1065 241.514 78.1225 241.315 78.1225C240.967 78.1225 240.631 78.0462 240.308 77.8935C239.988 77.7408 239.726 77.5135 239.52 77.2116C239.314 76.9098 239.211 76.5352 239.211 76.0877V67.858ZM244.059 78V69.8182H245.013V78H244.059ZM244.544 68.4119C244.349 68.4119 244.182 68.3462 244.043 68.2148C243.905 68.0799 243.836 67.9183 243.836 67.7301C243.836 67.5419 243.905 67.3821 244.043 67.2507C244.182 67.1158 244.349 67.0483 244.544 67.0483C244.739 67.0483 244.906 67.1158 245.045 67.2507C245.183 67.3821 245.252 67.5419 245.252 67.7301C245.252 67.9183 245.183 68.0799 245.045 68.2148C244.906 68.3462 244.739 68.4119 244.544 68.4119ZM250.7 78.1705C249.994 78.1705 249.369 77.9911 248.825 77.6325C248.286 77.2738 247.863 76.7784 247.558 76.1463C247.252 75.5107 247.1 74.7773 247.1 73.9464C247.1 73.1083 247.252 72.3714 247.558 71.7358C247.863 71.0966 248.286 70.5994 248.825 70.2443C249.369 69.8857 249.994 69.7063 250.7 69.7063C251.407 69.7063 252.03 69.8857 252.57 70.2443C253.11 70.603 253.532 71.1001 253.838 71.7358C254.147 72.3714 254.301 73.1083 254.301 73.9464C254.301 74.7773 254.149 75.5107 253.843 76.1463C253.538 76.7784 253.113 77.2738 252.57 77.6325C252.03 77.9911 251.407 78.1705 250.7 78.1705ZM250.7 77.3022C251.269 77.3022 251.75 77.1495 252.144 76.8441C252.538 76.5387 252.836 76.1321 253.039 75.6243C253.245 75.1165 253.348 74.5572 253.348 73.9464C253.348 73.3356 253.245 72.7745 253.039 72.2631C252.836 71.7518 252.538 71.3416 252.144 71.0327C251.75 70.7237 251.269 70.5692 250.7 70.5692C250.136 70.5692 249.655 70.7237 249.257 71.0327C248.863 71.3416 248.563 71.7518 248.357 72.2631C248.154 72.7745 248.053 73.3356 248.053 73.9464C248.053 74.5572 248.154 75.1165 248.357 75.6243C248.563 76.1321 248.863 76.5387 249.257 76.8441C249.651 77.1495 250.132 77.3022 250.7 77.3022ZM257.331 72.8864V78H256.383V69.8182H257.304V71.1019H257.389C257.581 70.6829 257.879 70.3473 258.284 70.0952C258.693 69.8395 259.197 69.7116 259.797 69.7116C260.347 69.7116 260.83 69.8271 261.246 70.0579C261.665 70.2852 261.99 70.6207 262.221 71.0646C262.455 71.5085 262.572 72.0536 262.572 72.6999V78H261.624V72.7585C261.624 72.0874 261.436 71.5565 261.059 71.1658C260.687 70.7752 260.186 70.5799 259.557 70.5799C259.128 70.5799 258.746 70.6722 258.412 70.8569C258.078 71.0415 257.814 71.3079 257.618 71.6559C257.427 72.0004 257.331 72.4105 257.331 72.8864ZM268.824 67.9858V67.0909H276.735V67.9858H273.278V78H272.282V67.9858H268.824ZM277.93 78V69.8182H278.852V71.0753H278.921C279.085 70.6634 279.369 70.3313 279.774 70.0792C280.182 69.8235 280.644 69.6957 281.158 69.6957C281.237 69.6957 281.324 69.6974 281.419 69.701C281.515 69.7045 281.595 69.7081 281.659 69.7116V70.6758C281.617 70.6687 281.542 70.658 281.435 70.6438C281.329 70.6296 281.214 70.6225 281.089 70.6225C280.663 70.6225 280.283 70.7131 279.949 70.8942C279.619 71.0717 279.358 71.3185 279.166 71.6346C278.975 71.9506 278.879 72.3111 278.879 72.7159V78H277.93ZM285.562 78.1864C285.069 78.1864 284.618 78.0906 284.209 77.8988C283.801 77.7035 283.476 77.4229 283.235 77.0572C282.993 76.6879 282.872 76.2404 282.872 75.7148C282.872 75.31 282.949 74.9691 283.101 74.6921C283.254 74.4151 283.471 74.1879 283.751 74.0103C284.032 73.8327 284.364 73.6925 284.747 73.5895C285.131 73.4865 285.553 73.4066 286.015 73.3498C286.473 73.293 286.86 73.2433 287.176 73.2006C287.496 73.158 287.739 73.0906 287.906 72.9982C288.073 72.9059 288.156 72.7567 288.156 72.5508V72.359C288.156 71.8015 287.99 71.3629 287.656 71.0433C287.325 70.7202 286.85 70.5586 286.228 70.5586C285.639 70.5586 285.157 70.6882 284.785 70.9474C284.415 71.2067 284.156 71.5121 284.007 71.8636L283.107 71.5387C283.291 71.0913 283.547 70.7344 283.874 70.468C284.2 70.1982 284.566 70.0046 284.971 69.8874C285.376 69.7667 285.786 69.7063 286.202 69.7063C286.514 69.7063 286.839 69.7472 287.176 69.8288C287.517 69.9105 287.833 70.0526 288.124 70.255C288.416 70.4538 288.652 70.7326 288.833 71.0913C289.014 71.4464 289.105 71.8974 289.105 72.4442V78H288.156V76.7056H288.098C287.984 76.9471 287.816 77.1815 287.592 77.4087C287.368 77.636 287.088 77.8224 286.75 77.968C286.413 78.1136 286.017 78.1864 285.562 78.1864ZM285.69 77.3182C286.194 77.3182 286.631 77.2063 287.001 76.9826C287.37 76.7589 287.654 76.4624 287.853 76.093C288.055 75.7202 288.156 75.31 288.156 74.8626V73.68C288.085 73.7475 287.966 73.8079 287.8 73.8612C287.636 73.9144 287.446 73.9624 287.23 74.005C287.017 74.044 286.803 74.0778 286.59 74.1062C286.377 74.1346 286.186 74.1594 286.015 74.1808C285.553 74.2376 285.159 74.3263 284.833 74.4471C284.506 74.5678 284.256 74.7347 284.081 74.9478C283.907 75.1573 283.82 75.4272 283.82 75.7575C283.82 76.2546 283.998 76.6399 284.353 76.9134C284.708 77.1832 285.154 77.3182 285.69 77.3182ZM294.823 78.1705C294.091 78.1705 293.454 77.9876 292.911 77.6218C292.371 77.256 291.952 76.7553 291.653 76.1197C291.355 75.484 291.206 74.7596 291.206 73.9464C291.206 73.1261 291.357 72.3963 291.659 71.7571C291.964 71.1179 292.387 70.6172 292.926 70.255C293.466 69.8892 294.093 69.7063 294.807 69.7063C295.354 69.7063 295.849 69.8129 296.293 70.0259C296.737 70.2354 297.103 70.532 297.39 70.9155C297.681 71.2955 297.864 71.7393 297.939 72.2472H296.98C296.881 71.7855 296.641 71.3913 296.261 71.0646C295.885 70.7344 295.405 70.5692 294.823 70.5692C294.301 70.5692 293.839 70.7113 293.438 70.9954C293.037 71.2759 292.722 71.6683 292.495 72.1726C292.271 72.6733 292.159 73.2539 292.159 73.9144C292.159 74.5785 292.27 75.1662 292.49 75.6776C292.71 76.1854 293.019 76.5831 293.417 76.8707C293.818 77.1584 294.287 77.3022 294.823 77.3022C295.185 77.3022 295.515 77.2347 295.814 77.0998C296.115 76.9613 296.368 76.766 296.57 76.5138C296.776 76.2617 296.914 75.9616 296.985 75.6136H297.944C297.873 76.1072 297.697 76.5476 297.417 76.9347C297.14 77.3182 296.779 77.62 296.336 77.8402C295.895 78.0604 295.391 78.1705 294.823 78.1705ZM300.839 74.9105L300.829 73.6694H301.042L304.877 69.8182H306.075L302.288 73.6108L302.203 73.6268L300.839 74.9105ZM299.976 78V67.0909H300.925V78H299.976ZM305.074 78L301.75 73.7972L302.432 73.142L306.289 78H305.074ZM307.868 78V69.8182H308.821V78H307.868ZM308.353 68.4119C308.157 68.4119 307.99 68.3462 307.852 68.2148C307.713 68.0799 307.644 67.9183 307.644 67.7301C307.644 67.5419 307.713 67.3821 307.852 67.2507C307.99 67.1158 308.157 67.0483 308.353 67.0483C308.548 67.0483 308.715 67.1158 308.853 67.2507C308.992 67.3821 309.061 67.5419 309.061 67.7301C309.061 67.9183 308.992 68.0799 308.853 68.2148C308.715 68.3462 308.548 68.4119 308.353 68.4119ZM312.277 72.8864V78H311.329V69.8182H312.25V71.1019H312.336C312.527 70.6829 312.826 70.3473 313.231 70.0952C313.639 69.8395 314.143 69.7116 314.743 69.7116C315.294 69.7116 315.777 69.8271 316.192 70.0579C316.611 70.2852 316.936 70.6207 317.167 71.0646C317.401 71.5085 317.519 72.0536 317.519 72.6999V78H316.57V72.7585C316.57 72.0874 316.382 71.5565 316.006 71.1658C315.633 70.7752 315.132 70.5799 314.504 70.5799C314.074 70.5799 313.692 70.6722 313.358 70.8569C313.025 71.0415 312.76 71.3079 312.565 71.6559C312.373 72.0004 312.277 72.4105 312.277 72.8864ZM323.137 81.2386C322.579 81.2386 322.091 81.1658 321.672 81.0202C321.253 80.8782 320.9 80.6829 320.612 80.4343C320.324 80.1857 320.101 79.907 319.941 79.598L320.719 79.0866C320.836 79.2926 320.992 79.495 321.187 79.6939C321.386 79.8928 321.644 80.0579 321.96 80.1893C322.279 80.3207 322.672 80.3864 323.137 80.3864C323.861 80.3864 324.445 80.2053 324.889 79.843C325.337 79.4808 325.561 78.918 325.561 78.1545V76.3114H325.475C325.365 76.56 325.207 76.8086 325.001 77.0572C324.795 77.3022 324.525 77.5064 324.192 77.6697C323.861 77.8331 323.451 77.9148 322.961 77.9148C322.308 77.9148 321.727 77.7532 321.219 77.43C320.715 77.1069 320.317 76.6452 320.026 76.0451C319.738 75.4414 319.595 74.7223 319.595 73.8878C319.595 73.0604 319.735 72.3324 320.015 71.7038C320.3 71.0753 320.695 70.5852 321.203 70.2337C321.711 69.8821 322.302 69.7063 322.977 69.7063C323.478 69.7063 323.893 69.7951 324.224 69.9727C324.554 70.1467 324.818 70.3633 325.017 70.6225C325.22 70.8817 325.378 71.1339 325.491 71.3789H325.587V69.8182H326.514V78.2131C326.514 78.9055 326.367 79.4755 326.072 79.9229C325.777 80.3704 325.376 80.7006 324.868 80.9137C324.36 81.1303 323.783 81.2386 323.137 81.2386ZM323.073 77.0465C323.599 77.0465 324.048 76.9205 324.421 76.6683C324.794 76.4126 325.079 76.0469 325.278 75.571C325.477 75.0952 325.577 74.5288 325.577 73.8718C325.577 73.2326 325.479 72.6662 325.284 72.1726C325.088 71.6754 324.804 71.2848 324.431 71.0007C324.062 70.7131 323.609 70.5692 323.073 70.5692C322.526 70.5692 322.064 70.7166 321.688 71.0114C321.312 71.3061 321.028 71.7038 320.836 72.2045C320.644 72.7017 320.548 73.2575 320.548 73.8718C320.548 74.4968 320.646 75.049 320.841 75.5284C321.036 76.0043 321.322 76.3771 321.699 76.647C322.075 76.9134 322.533 77.0465 323.073 77.0465Z" fill="white"/>
<path d="M28.1868 3.83484C29.9099 3.83484 31.3071 5.26107 31.3074 7.02019V33.4592C31.3071 35.2183 29.9099 36.6446 28.1868 36.6446H4.98708C3.2639 36.6446 1.86676 35.2183 1.86646 33.4592V7.02019C1.86646 5.26107 3.2636 3.83484 4.98708 3.83484H28.1868ZM12.6417 12.1869C10.9183 12.1869 9.52111 13.6131 9.52111 15.3722V25.1072C9.52111 26.8663 10.9183 28.2925 12.6417 28.2925H21.1213C22.8447 28.2925 24.2419 26.8663 24.2419 25.1072V15.3722C24.2419 13.6131 22.8447 12.1872 21.1213 12.1869H12.6417Z" fill="white"/>
<path d="M3.94697 43.8025H8.61858C8.68692 43.8025 8.75465 43.8058 8.82269 43.8126C8.89042 43.8194 8.95786 43.8295 9.02469 43.8433C9.09152 43.8569 9.15745 43.8738 9.22247 43.8938C9.2878 43.914 9.35192 43.9374 9.41484 43.9641C9.47776 43.9906 9.53947 44.0204 9.59938 44.0533C9.65959 44.0859 9.71799 44.1215 9.77459 44.1602C9.83118 44.199 9.88597 44.2402 9.93866 44.2844C9.99134 44.3287 10.0416 44.3751 10.0898 44.4243C10.1379 44.4735 10.1837 44.5251 10.2271 44.5789C10.2701 44.6327 10.3107 44.6883 10.3487 44.7461C10.3863 44.8039 10.4215 44.8635 10.4534 44.925C10.4857 44.9862 10.5149 45.0489 10.5407 45.1134C10.5669 45.1777 10.5898 45.2428 10.6097 45.3095C10.6293 45.3759 10.6458 45.4435 10.6594 45.5118C10.6726 45.5797 10.6825 45.6486 10.6892 45.7177C10.6958 45.7869 10.6991 45.8564 10.6991 45.9258V53.013C10.6991 53.0828 10.6958 53.1519 10.6892 53.2211C10.6825 53.2906 10.6726 53.3591 10.6591 53.4274C10.6458 53.4956 10.6293 53.5629 10.6097 53.6296C10.5898 53.696 10.5669 53.7615 10.5407 53.8257C10.5149 53.89 10.4857 53.9527 10.4534 54.0141C10.4215 54.0753 10.3863 54.1349 10.3487 54.1927C10.3107 54.2508 10.2701 54.3065 10.2271 54.3602C10.1837 54.414 10.1379 54.4654 10.0898 54.5145C10.0416 54.5637 9.99134 54.6105 9.93866 54.6547C9.88597 54.6987 9.83118 54.7402 9.77459 54.7786C9.71799 54.8173 9.65959 54.853 9.59938 54.8859C9.53947 54.9188 9.47776 54.9483 9.41484 54.975C9.35192 55.0014 9.2878 55.0251 9.22247 55.0451C9.15745 55.0654 9.09152 55.0823 9.02469 55.0958C8.95786 55.1093 8.89042 55.1195 8.82269 55.1265C8.75465 55.1333 8.68692 55.1367 8.61858 55.1367H3.94697C3.87864 55.1367 3.8109 55.1333 3.74286 55.1265C3.67513 55.1195 3.608 55.1093 3.54116 55.0958C3.47433 55.0823 3.4081 55.0654 3.34308 55.0451C3.27775 55.0251 3.21363 55.0014 3.15071 54.975C3.08779 54.9483 3.02638 54.9188 2.96617 54.8859C2.90596 54.853 2.84786 54.8173 2.79096 54.7786C2.73437 54.7402 2.67988 54.6987 2.62719 54.6547C2.57451 54.6105 2.52394 54.5637 2.47577 54.5145C2.4276 54.4654 2.38184 54.414 2.33879 54.3602C2.29544 54.3065 2.2548 54.2508 2.21717 54.1927C2.17924 54.1349 2.14432 54.0753 2.11211 54.0141C2.0799 53.9527 2.051 53.89 2.0248 53.8257C1.99861 53.7615 1.97573 53.696 1.95587 53.6296C1.9363 53.5629 1.91974 53.4956 1.90649 53.4274C1.89325 53.3591 1.88301 53.2906 1.87639 53.2211C1.86977 53.1519 1.86646 53.0828 1.86646 53.013V45.9258C1.86646 45.8564 1.86977 45.7869 1.87639 45.7177C1.88301 45.6486 1.89325 45.5797 1.90649 45.5118C1.91974 45.4435 1.9363 45.3759 1.95587 45.3095C1.97573 45.2428 1.99861 45.1777 2.0248 45.1134C2.051 45.0489 2.0799 44.9862 2.11211 44.925C2.14432 44.8635 2.17924 44.8039 2.21717 44.7461C2.2548 44.6883 2.29544 44.6327 2.33879 44.5789C2.38184 44.5251 2.4276 44.4735 2.47577 44.4243C2.52394 44.3751 2.57451 44.3287 2.62719 44.2844C2.67988 44.2402 2.73437 44.199 2.79096 44.1602C2.84786 44.1215 2.90596 44.0859 2.96617 44.0533C3.02638 44.0204 3.08779 43.9906 3.15071 43.9641C3.21363 43.9374 3.27775 43.914 3.34308 43.8938C3.4081 43.8738 3.47433 43.8569 3.54116 43.8433C3.608 43.8295 3.67513 43.8194 3.74286 43.8126C3.8109 43.8058 3.87864 43.8025 3.94697 43.8025Z" fill="white"/>
<path d="M3.94697 61.6983H8.61858C8.68692 61.6983 8.75465 61.7017 8.82269 61.7084C8.89042 61.7152 8.95786 61.7256 9.02469 61.7392C9.09152 61.7527 9.15745 61.7696 9.22247 61.7896C9.2878 61.8099 9.35192 61.8332 9.41484 61.86C9.47776 61.8864 9.53947 61.9162 9.59938 61.9491C9.65959 61.9817 9.71799 62.0176 9.77459 62.0561C9.83118 62.0948 9.88597 62.1363 9.93866 62.1802C9.99134 62.2245 10.0416 62.2709 10.0898 62.3201C10.1379 62.3693 10.1837 62.4209 10.2271 62.4747C10.2701 62.5285 10.3107 62.5841 10.3487 62.6419C10.3863 62.6997 10.4215 62.7593 10.4534 62.8208C10.4857 62.882 10.5149 62.945 10.5407 63.0092C10.5669 63.0735 10.5898 63.1386 10.6097 63.2053C10.6293 63.2717 10.6458 63.3394 10.6594 63.4076C10.6726 63.4758 10.6825 63.5444 10.6892 63.6135C10.6958 63.6827 10.6991 63.7522 10.6991 63.8216V70.9088C10.6991 70.9786 10.6958 71.0478 10.6892 71.1172C10.6825 71.1864 10.6726 71.2549 10.6591 71.3232C10.6458 71.3914 10.6293 71.4587 10.6097 71.5254C10.5898 71.5918 10.5669 71.6573 10.5407 71.7215C10.5149 71.7858 10.4857 71.8485 10.4534 71.91C10.4215 71.9714 10.3863 72.0308 10.3487 72.0888C10.3107 72.1466 10.2701 72.2023 10.2271 72.2561C10.1837 72.3099 10.1379 72.3612 10.0898 72.4104C10.0416 72.4595 9.99134 72.5063 9.93866 72.5505C9.88597 72.5945 9.83118 72.636 9.77459 72.6747C9.71799 72.7131 9.65959 72.7488 9.59938 72.7817C9.53947 72.8146 9.47776 72.8441 9.41484 72.8708C9.35192 72.8976 9.2878 72.9209 9.22247 72.9409C9.15745 72.9612 9.09152 72.9781 9.02469 72.9916C8.95786 73.0051 8.89042 73.0153 8.82269 73.0224C8.75465 73.0291 8.68692 73.0325 8.61858 73.0325H3.94697C3.87864 73.0325 3.8109 73.0291 3.74286 73.0224C3.67513 73.0153 3.608 73.0051 3.54116 72.9916C3.47433 72.9781 3.4081 72.9612 3.34308 72.9409C3.27775 72.9209 3.21363 72.8976 3.15071 72.8708C3.08779 72.8441 3.02638 72.8146 2.96617 72.7817C2.90596 72.7488 2.84786 72.7131 2.79096 72.6747C2.73437 72.636 2.67988 72.5945 2.62719 72.5505C2.57451 72.5063 2.52394 72.4595 2.47577 72.4104C2.4276 72.3612 2.38184 72.3099 2.33879 72.2561C2.29544 72.2023 2.2548 72.1466 2.21717 72.0888C2.17924 72.0308 2.14432 71.9714 2.11211 71.91C2.0799 71.8485 2.051 71.7858 2.0248 71.7215C1.99861 71.6573 1.97573 71.5918 1.95587 71.5254C1.9363 71.4587 1.91974 71.3914 1.90649 71.3232C1.89325 71.2549 1.88301 71.1864 1.87639 71.1172C1.86977 71.0478 1.86646 70.9786 1.86646 70.9088V63.8216C1.86646 63.7522 1.86977 63.6827 1.87639 63.6135C1.88301 63.5444 1.89325 63.4758 1.90649 63.4076C1.91974 63.3394 1.9363 63.2717 1.95587 63.2053C1.97573 63.1386 1.99861 63.0735 2.0248 63.0092C2.051 62.945 2.0799 62.882 2.11211 62.8208C2.14432 62.7593 2.17924 62.6997 2.21717 62.6419C2.2548 62.5841 2.29544 62.5285 2.33879 62.4747C2.38184 62.4209 2.4276 62.3693 2.47577 62.3201C2.52394 62.2709 2.57451 62.2245 2.62719 62.1802C2.67988 62.1363 2.73437 62.0948 2.79096 62.0561C2.84786 62.0176 2.90596 61.9817 2.96617 61.9491C3.02638 61.9162 3.08779 61.8864 3.15071 61.86C3.21363 61.8332 3.27775 61.8099 3.34308 61.7896C3.4081 61.7696 3.47433 61.7527 3.54116 61.7392C3.608 61.7256 3.67513 61.7152 3.74286 61.7084C3.8109 61.7017 3.87864 61.6983 3.94697 61.6983Z" fill="#308DEE"/>
<mask id="mask0_136_62" style="mask-type:luminance" maskUnits="userSpaceOnUse" x="1" y="63" width="23" height="25">
<path d="M1.84961 63.2656H23.6597V87.9738H1.84961V63.2656Z" fill="white"/>
</mask>
<g mask="url(#mask0_136_62)">
<mask id="mask1_136_62" style="mask-type:luminance" maskUnits="userSpaceOnUse" x="1" y="63" width="23" height="25">
<path d="M1.86646 85.8218V80.5245C1.86646 79.3515 2.79789 78.4008 3.94697 78.4008H14.5064C15.6555 78.4008 16.5869 77.4501 16.5869 76.2775V65.4117C16.5869 63.2874 19.3054 62.4793 20.4228 64.2719L23.3276 68.9315C23.5398 69.272 23.6527 69.6676 23.6527 70.0712V87.4143C23.6527 87.7076 23.42 87.9452 23.1325 87.9452H3.94697C2.79789 87.9452 1.86646 86.9945 1.86646 85.8218Z" fill="white"/>
</mask>
<g mask="url(#mask1_136_62)">
<path d="M1.86646 62.4793V87.9452H23.6527V62.4793H1.86646Z" fill="url(#paint0_linear_136_62)"/>
<path d="M1.86646 62.4793V87.9452H23.6527V62.4793H1.86646Z" fill="url(#paint1_linear_136_62)"/>
</g>
</g>
<mask id="mask2_136_62" style="mask-type:luminance" maskUnits="userSpaceOnUse" x="28" y="76" width="11" height="12">
<path d="M28.3608 76.4852H38.0713V87.9738H28.3608V76.4852Z" fill="white"/>
</mask>
<g mask="url(#mask2_136_62)">
<mask id="mask3_136_62" style="mask-type:luminance" maskUnits="userSpaceOnUse" x="28" y="76" width="11" height="12">
<path d="M28.3635 87.6267V76.8765C28.3635 76.5805 28.7238 76.4447 28.9123 76.6694L37.9322 87.4196C38.1056 87.6261 37.9617 87.9452 37.6952 87.9452H28.6753C28.5031 87.9452 28.3635 87.8026 28.3635 87.6267Z" fill="white"/>
</mask>
<g mask="url(#mask3_136_62)">
<path d="M28.3635 76.4447V87.9452H38.1056V76.4447H28.3635Z" fill="url(#paint2_linear_136_62)"/>
</g>
</g>
<mask id="mask4_136_62" style="mask-type:luminance" maskUnits="userSpaceOnUse" x="67" y="64" width="21" height="24">
<path d="M67.8193 64.918H87.3173V87.9738H67.8193V64.918Z" fill="white"/>
</mask>
<g mask="url(#mask4_136_62)">
<mask id="mask5_136_62" style="mask-type:luminance" maskUnits="userSpaceOnUse" x="67" y="64" width="21" height="24">
<path fill-rule="evenodd" clip-rule="evenodd" d="M87.2454 87.4144C87.2454 87.7076 87.0127 87.9452 86.7255 87.9452H68.3557C67.9114 87.9452 67.6718 87.4134 67.9608 87.0692L86.3302 65.175C86.6445 64.8006 87.2454 65.0275 87.2454 65.5202V87.4144Z" fill="white"/>
</mask>
<g mask="url(#mask5_136_62)">
<path d="M67.6718 64.8006V87.9452H87.2454V64.8006H67.6718Z" fill="url(#paint3_linear_136_62)"/>
</g>
</g>
<mask id="mask6_136_62" style="mask-type:luminance" maskUnits="userSpaceOnUse" x="41" y="36" width="47" height="52">
<path d="M41.8475 36.5901H87.3173V87.9738H41.8475V36.5901Z" fill="white"/>
</mask>
<g mask="url(#mask6_136_62)">
<mask id="mask7_136_62" style="mask-type:luminance" maskUnits="userSpaceOnUse" x="41" y="36" width="47" height="52">
<path d="M54.2713 87.9452H41.9062L87.2453 36.644V49.1711L54.2713 87.9452Z" fill="white"/>
</mask>
<g mask="url(#mask7_136_62)">
<path d="M41.9062 36.644V87.9452H87.2453V36.644H41.9062Z" fill="url(#paint4_linear_136_62)"/>
</g>
</g>
<mask id="mask8_136_62" style="mask-type:luminance" maskUnits="userSpaceOnUse" x="15" y="1" width="97" height="79">
<path d="M15.3364 1.44897H111.131V79.9475H15.3364V1.44897Z" fill="white"/>
</mask>
<g mask="url(#mask8_136_62)">
<path d="M15.4093 47.3816C15.7037 50.9607 28.4548 65.2943 39.5509 79.8922L39.8454 61.9964L111.093 1.44897C83.2192 15.6661 67.1895 28.1932 39.8454 50.6625C36.4553 47.7609 27.7596 43.5805 27.1858 43.5043C26.6909 43.4385 23.8229 42.1506 20.4145 42.3111C16.1989 42.5096 15.1149 43.8025 15.4093 47.3816Z" fill="#53B9FF"/>
</g>
<mask id="mask9_136_62" style="mask-type:luminance" maskUnits="userSpaceOnUse" x="39" y="1" width="73" height="79">
<path d="M39.5355 1.44897H111.131V79.9475H39.5355V1.44897Z" fill="white"/>
</mask>
<g mask="url(#mask9_136_62)">
<mask id="mask10_136_62" style="mask-type:luminance" maskUnits="userSpaceOnUse" x="39" y="1" width="73" height="79">
<path d="M39.5508 61.9964V79.8922C66.4838 45.2763 81.0227 27.5192 111.093 1.44897C82.2702 21.1875 66.7174 34.9368 39.5508 61.9964Z" fill="white"/>
</mask>
<g mask="url(#mask10_136_62)">
<path d="M39.5508 1.44897V79.8922H111.093V1.44897H39.5508Z" fill="url(#paint5_linear_136_62)"/>
</g>
</g>
<path d="M40.5907 3.83484H49.1094C49.1777 3.83484 49.2454 3.8416 49.3123 3.85543C49.3794 3.86896 49.4444 3.88894 49.5073 3.91568C49.5706 3.94242 49.6305 3.975 49.6874 4.01373C49.744 4.05246 49.7966 4.09642 49.8448 4.1459C49.8933 4.19508 49.9363 4.24888 49.9743 4.30666C50.0122 4.36476 50.0444 4.42593 50.0703 4.49047C50.0965 4.55472 50.1164 4.62111 50.1296 4.68935C50.1428 4.75789 50.1498 4.82705 50.1498 4.89652V13.5108C50.1498 13.5802 50.1428 13.6494 50.1296 13.7176C50.1164 13.7862 50.0965 13.8526 50.0703 13.9168C50.0444 13.9814 50.0122 14.0425 49.9743 14.1006C49.9363 14.1584 49.8933 14.2122 49.8448 14.2614C49.7966 14.3106 49.744 14.3548 49.6874 14.3935C49.6305 14.4323 49.5706 14.4649 49.5073 14.4916C49.4444 14.5183 49.3794 14.5383 49.3123 14.5518C49.2454 14.5657 49.1777 14.5724 49.1094 14.5724H40.5907C40.5224 14.5724 40.4549 14.5657 40.3878 14.5518C40.321 14.5383 40.2556 14.5183 40.1927 14.4916C40.1295 14.4649 40.0696 14.4323 40.0127 14.3935C39.9561 14.3548 39.9034 14.3106 39.8553 14.2614C39.8068 14.2122 39.7637 14.1584 39.7258 14.1006C39.6879 14.0425 39.656 13.9814 39.6298 13.9168C39.6036 13.8526 39.5837 13.7862 39.5705 13.7176C39.5572 13.6494 39.5506 13.5802 39.5506 13.5108V4.89652C39.5506 4.82705 39.5572 4.75789 39.5705 4.68935C39.5837 4.62111 39.6036 4.55472 39.6298 4.49047C39.656 4.42593 39.6879 4.36476 39.7258 4.30666C39.7637 4.24888 39.8068 4.19508 39.8553 4.1459C39.9034 4.09642 39.9561 4.05246 40.0127 4.01373C40.0696 3.975 40.1295 3.94242 40.1927 3.91568C40.2556 3.88894 40.321 3.86896 40.3878 3.85543C40.4549 3.8416 40.5224 3.83484 40.5907 3.83484Z" fill="white"/>
<path d="M57.6674 3.83484H66.1861C66.2544 3.83484 66.3222 3.8416 66.389 3.85543C66.4561 3.86896 66.5211 3.88894 66.5841 3.91568C66.6473 3.94242 66.7072 3.975 66.7641 4.01373C66.8207 4.05246 66.8734 4.09642 66.9215 4.1459C66.97 4.19508 67.013 4.24888 67.051 4.30666C67.0889 4.36476 67.1211 4.42593 67.147 4.49047C67.1732 4.55472 67.1931 4.62111 67.2063 4.68935C67.2196 4.75789 67.2265 4.82705 67.2265 4.89652V13.5108C67.2265 13.5802 67.2196 13.6494 67.2063 13.7176C67.1931 13.7862 67.1732 13.8526 67.147 13.9168C67.1211 13.9814 67.0889 14.0425 67.051 14.1006C67.013 14.1584 66.97 14.2122 66.9215 14.2614C66.8734 14.3106 66.8207 14.3548 66.7641 14.3935C66.7072 14.4323 66.6473 14.4649 66.5841 14.4916C66.5211 14.5183 66.4561 14.5383 66.389 14.5518C66.3222 14.5657 66.2544 14.5724 66.1861 14.5724H57.6674C57.5991 14.5724 57.5317 14.5657 57.4645 14.5518C57.3977 14.5383 57.3324 14.5183 57.2694 14.4916C57.2062 14.4649 57.1463 14.4323 57.0894 14.3935C57.0328 14.3548 56.9801 14.3106 56.932 14.2614C56.8835 14.2122 56.8405 14.1584 56.8025 14.1006C56.7646 14.0425 56.7327 13.9814 56.7065 13.9168C56.6803 13.8526 56.6604 13.7862 56.6472 13.7176C56.6339 13.6494 56.6273 13.5802 56.6273 13.5108V4.89652C56.6273 4.82705 56.6339 4.75789 56.6472 4.68935C56.6604 4.62111 56.6803 4.55472 56.7065 4.49047C56.7327 4.42593 56.7646 4.36476 56.8025 4.30666C56.8405 4.24888 56.8835 4.19508 56.932 4.1459C56.9801 4.09642 57.0328 4.05246 57.0894 4.01373C57.1463 3.975 57.2062 3.94242 57.2694 3.91568C57.3324 3.88894 57.3977 3.86896 57.4645 3.85543C57.5317 3.8416 57.5991 3.83484 57.6674 3.83484Z" fill="white"/>
<path d="M74.7433 3.83484H83.2619C83.3303 3.83484 83.3977 3.8416 83.4648 3.85543C83.5317 3.86896 83.5967 3.88894 83.6599 3.91568C83.7231 3.94242 83.783 3.975 83.8396 4.01373C83.8965 4.05246 83.9492 4.09642 83.9974 4.1459C84.0456 4.19508 84.0889 4.24888 84.1268 4.30666C84.1648 4.36476 84.1967 4.42593 84.2229 4.49047C84.2491 4.55472 84.2686 4.62111 84.2822 4.68935C84.2954 4.75789 84.302 4.82705 84.302 4.89652V13.5108C84.302 13.5802 84.2954 13.6494 84.2822 13.7176C84.2686 13.7862 84.2491 13.8526 84.2229 13.9168C84.1967 13.9814 84.1648 14.0425 84.1268 14.1006C84.0889 14.1584 84.0456 14.2122 83.9974 14.2614C83.9492 14.3106 83.8965 14.3548 83.8396 14.3935C83.783 14.4323 83.7231 14.4649 83.6599 14.4916C83.5967 14.5183 83.5317 14.5383 83.4648 14.5518C83.3977 14.5657 83.3303 14.5724 83.2619 14.5724H74.7433C74.675 14.5724 74.6072 14.5657 74.5404 14.5518C74.4733 14.5383 74.4082 14.5183 74.345 14.4916C74.2821 14.4649 74.2222 14.4323 74.1653 14.3935C74.1084 14.3548 74.056 14.3106 74.0075 14.2614C73.9594 14.2122 73.9163 14.1584 73.8784 14.1006C73.8405 14.0425 73.8082 13.9814 73.7821 13.9168C73.7559 13.8526 73.7363 13.7862 73.7231 13.7176C73.7095 13.6494 73.7029 13.5802 73.7029 13.5108V4.89652C73.7029 4.82705 73.7095 4.75789 73.7231 4.68935C73.7363 4.62111 73.7559 4.55472 73.7821 4.49047C73.8082 4.42593 73.8405 4.36476 73.8784 4.30666C73.9163 4.24888 73.9594 4.19508 74.0075 4.1459C74.056 4.09642 74.1084 4.05246 74.1653 4.01373C74.2222 3.975 74.2821 3.94242 74.345 3.91568C74.4082 3.88894 74.4733 3.86896 74.5404 3.85543C74.6072 3.8416 74.675 3.83484 74.7433 3.83484Z" fill="white"/>
<path d="M40.5907 20.5383H49.1094C49.1777 20.5383 49.2454 20.5451 49.3123 20.5589C49.3794 20.5724 49.4444 20.5924 49.5073 20.6192C49.5706 20.6459 49.6305 20.6785 49.6874 20.7172C49.744 20.756 49.7966 20.7999 49.8448 20.8494C49.8933 20.8986 49.9363 20.9524 49.9743 21.0102C50.0122 21.0682 50.0444 21.1294 50.0703 21.1937C50.0965 21.2582 50.1164 21.3246 50.1296 21.3928C50.1428 21.4614 50.1498 21.5305 50.1498 21.6V30.2143C50.1498 30.2837 50.1428 30.3529 50.1296 30.4211C50.1164 30.4897 50.0965 30.5561 50.0703 30.6203C50.0444 30.6848 50.0122 30.746 49.9743 30.8041C49.9363 30.8619 49.8933 30.9157 49.8448 30.9649C49.7966 31.014 49.744 31.0583 49.6874 31.097C49.6305 31.1358 49.5706 31.1684 49.5073 31.1951C49.4444 31.2218 49.3794 31.2418 49.3123 31.2553C49.2454 31.2692 49.1777 31.2759 49.1094 31.2759H40.5907C40.5224 31.2759 40.4549 31.2692 40.3878 31.2553C40.321 31.2418 40.2556 31.2218 40.1927 31.1951C40.1295 31.1684 40.0696 31.1358 40.0127 31.097C39.9561 31.0583 39.9034 31.014 39.8553 30.9649C39.8068 30.9157 39.7637 30.8619 39.7258 30.8041C39.6879 30.746 39.656 30.6848 39.6298 30.6203C39.6036 30.5561 39.5837 30.4897 39.5705 30.4211C39.5572 30.3529 39.5506 30.2837 39.5506 30.2143V21.6C39.5506 21.5305 39.5572 21.4614 39.5705 21.3928C39.5837 21.3246 39.6036 21.2582 39.6298 21.1937C39.656 21.1294 39.6879 21.0682 39.7258 21.0102C39.7637 20.9524 39.8068 20.8986 39.8553 20.8494C39.9034 20.7999 39.9561 20.756 40.0127 20.7172C40.0696 20.6785 40.1295 20.6459 40.1927 20.6192C40.2556 20.5924 40.321 20.5724 40.3878 20.5589C40.4549 20.5451 40.5224 20.5383 40.5907 20.5383Z" fill="white"/>
<path d="M57.6668 31.2753C57.0924 31.2753 56.6267 30.8001 56.6267 30.2136V21.5997C56.6267 21.0132 57.0924 20.538 57.6668 20.538H66.1852C66.7599 20.538 67.2256 21.0132 67.2256 21.5997V25.3734C67.2256 25.709 67.0702 26.0247 66.8065 26.2251L60.4361 31.0654C60.2567 31.2019 60.0387 31.2753 59.8151 31.2753H57.6668Z" fill="white"/>
<defs>
<linearGradient id="paint0_linear_136_62" x1="12.7599" y1="62.4794" x2="12.7599" y2="87.9453" gradientUnits="userSpaceOnUse">
<stop stop-color="#3591F0"/>
<stop offset="0.03125" stop-color="#3691F0"/>
<stop offset="0.0625" stop-color="#3792F1"/>
<stop offset="0.09375" stop-color="#3793F1"/>
<stop offset="0.125" stop-color="#3893F2"/>
<stop offset="0.15625" stop-color="#3994F2"/>
<stop offset="0.1875" stop-color="#3A95F2"/>
<stop offset="0.21875" stop-color="#3B95F3"/>
<stop offset="0.25" stop-color="#3C96F3"/>
<stop offset="0.28125" stop-color="#3D97F4"/>
<stop offset="0.3125" stop-color="#3E97F4"/>
<stop offset="0.34375" stop-color="#3F98F4"/>
<stop offset="0.375" stop-color="#4099F5"/>
<stop offset="0.40625" stop-color="#4199F5"/>
<stop offset="0.4375" stop-color="#429AF6"/>
<stop offset="0.46875" stop-color="#439BF6"/>
<stop offset="0.5" stop-color="#449CF6"/>
<stop offset="0.53125" stop-color="#459CF7"/>
<stop offset="0.5625" stop-color="#459DF7"/>
<stop offset="0.59375" stop-color="#469EF8"/>
<stop offset="0.625" stop-color="#479EF8"/>
<stop offset="0.65625" stop-color="#489FF8"/>
<stop offset="0.6875" stop-color="#49A0F9"/>
<stop offset="0.71875" stop-color="#4AA0F9"/>
<stop offset="0.75" stop-color="#4BA1FA"/>
<stop offset="0.78125" stop-color="#4CA2FA"/>
<stop offset="0.8125" stop-color="#4DA2FA"/>
<stop offset="0.84375" stop-color="#4EA3FB"/>
<stop offset="0.875" stop-color="#4FA4FB"/>
<stop offset="0.90625" stop-color="#50A5FC"/>
<stop offset="0.9375" stop-color="#51A5FC"/>
<stop offset="0.96875" stop-color="#52A6FC"/>
<stop offset="1" stop-color="#53A7FD"/>
</linearGradient>
<linearGradient id="paint1_linear_136_62" x1="12.7599" y1="62.4794" x2="12.7599" y2="87.9453" gradientUnits="userSpaceOnUse">
<stop stop-color="#3591F0"/>
<stop offset="0.03125" stop-color="#3691F0"/>
<stop offset="0.0625" stop-color="#3792F1"/>
<stop offset="0.09375" stop-color="#3793F1"/>
<stop offset="0.125" stop-color="#3893F2"/>
<stop offset="0.15625" stop-color="#3994F2"/>
<stop offset="0.1875" stop-color="#3A95F2"/>
<stop offset="0.21875" stop-color="#3B95F3"/>
<stop offset="0.25" stop-color="#3C96F3"/>
<stop offset="0.28125" stop-color="#3D97F4"/>
<stop offset="0.3125" stop-color="#3E97F4"/>
<stop offset="0.34375" stop-color="#3F98F4"/>
<stop offset="0.375" stop-color="#4099F5"/>
<stop offset="0.40625" stop-color="#4199F5"/>
<stop offset="0.4375" stop-color="#429AF6"/>
<stop offset="0.46875" stop-color="#439BF6"/>
<stop offset="0.5" stop-color="#449CF6"/>
<stop offset="0.53125" stop-color="#459CF7"/>
<stop offset="0.5625" stop-color="#459DF7"/>
<stop offset="0.59375" stop-color="#469EF8"/>
<stop offset="0.625" stop-color="#479EF8"/>
<stop offset="0.65625" stop-color="#489FF8"/>
<stop offset="0.6875" stop-color="#49A0F9"/>
<stop offset="0.71875" stop-color="#4AA0F9"/>
<stop offset="0.75" stop-color="#4BA1FA"/>
<stop offset="0.78125" stop-color="#4CA2FA"/>
<stop offset="0.8125" stop-color="#4DA2FA"/>
<stop offset="0.84375" stop-color="#4EA3FB"/>
<stop offset="0.875" stop-color="#4FA4FB"/>
<stop offset="0.90625" stop-color="#50A5FC"/>
<stop offset="0.9375" stop-color="#51A5FC"/>
<stop offset="0.96875" stop-color="#52A6FC"/>
<stop offset="1" stop-color="#53A7FD"/>
</linearGradient>
<linearGradient id="paint2_linear_136_62" x1="33.3683" y1="76.4446" x2="33.3683" y2="87.9453" gradientUnits="userSpaceOnUse">
<stop stop-color="#318EEF"/>
<stop offset="0.015625" stop-color="#328EEF"/>
<stop offset="0.03125" stop-color="#328FEF"/>
<stop offset="0.046875" stop-color="#338FEF"/>
<stop offset="0.0625" stop-color="#338FEF"/>
<stop offset="0.078125" stop-color="#3490F0"/>
<stop offset="0.09375" stop-color="#3490F0"/>
<stop offset="0.109375" stop-color="#3590F0"/>
<stop offset="0.125" stop-color="#3591F0"/>
<stop offset="0.140625" stop-color="#3691F1"/>
<stop offset="0.15625" stop-color="#3692F1"/>
<stop offset="0.171875" stop-color="#3792F1"/>
<stop offset="0.1875" stop-color="#3892F1"/>
<stop offset="0.203125" stop-color="#3893F2"/>
<stop offset="0.21875" stop-color="#3993F2"/>
<stop offset="0.234375" stop-color="#3994F2"/>
<stop offset="0.25" stop-color="#3A94F2"/>
<stop offset="0.265625" stop-color="#3A94F3"/>
<stop offset="0.28125" stop-color="#3B95F3"/>
<stop offset="0.296875" stop-color="#3B95F3"/>
<stop offset="0.3125" stop-color="#3C96F3"/>
<stop offset="0.328125" stop-color="#3C96F4"/>
<stop offset="0.34375" stop-color="#3D96F4"/>
<stop offset="0.359375" stop-color="#3D97F4"/>
<stop offset="0.375" stop-color="#3E97F4"/>
<stop offset="0.390625" stop-color="#3F98F4"/>
<stop offset="0.40625" stop-color="#3F98F5"/>
<stop offset="0.421875" stop-color="#4098F5"/>
<stop offset="0.4375" stop-color="#4099F5"/>
<stop offset="0.453125" stop-color="#4199F5"/>
<stop offset="0.46875" stop-color="#4199F6"/>
<stop offset="0.484375" stop-color="#429AF6"/>
<stop offset="0.5" stop-color="#429AF6"/>
<stop offset="0.515625" stop-color="#439BF6"/>
<stop offset="0.53125" stop-color="#439BF7"/>
<stop offset="0.546875" stop-color="#449BF7"/>
<stop offset="0.5625" stop-color="#459CF7"/>
<stop offset="0.578125" stop-color="#459CF7"/>
<stop offset="0.59375" stop-color="#469DF8"/>
<stop offset="0.609375" stop-color="#469DF8"/>
<stop offset="0.625" stop-color="#479DF8"/>
<stop offset="0.640625" stop-color="#479EF8"/>
<stop offset="0.65625" stop-color="#489EF9"/>
<stop offset="0.671875" stop-color="#489FF9"/>
<stop offset="0.6875" stop-color="#499FF9"/>
<stop offset="0.703125" stop-color="#499FF9"/>
<stop offset="0.71875" stop-color="#4AA0FA"/>
<stop offset="0.734375" stop-color="#4BA0FA"/>
<stop offset="0.75" stop-color="#4BA1FA"/>
<stop offset="0.765625" stop-color="#4CA1FA"/>
<stop offset="0.78125" stop-color="#4CA1FB"/>
<stop offset="0.796875" stop-color="#4DA2FB"/>
<stop offset="0.8125" stop-color="#4DA2FB"/>
<stop offset="0.828125" stop-color="#4EA2FB"/>
<stop offset="0.84375" stop-color="#4EA3FB"/>
<stop offset="0.859375" stop-color="#4FA3FC"/>
<stop offset="0.875" stop-color="#4FA4FC"/>
<stop offset="0.890625" stop-color="#50A4FC"/>
<stop offset="0.90625" stop-color="#50A4FC"/>
<stop offset="0.921875" stop-color="#51A5FD"/>
<stop offset="0.9375" stop-color="#52A5FD"/>
<stop offset="0.953125" stop-color="#52A6FD"/>
<stop offset="0.96875" stop-color="#53A6FD"/>
<stop offset="0.984375" stop-color="#53A6FE"/>
<stop offset="1" stop-color="#54A7FE"/>
</linearGradient>
<linearGradient id="paint3_linear_136_62" x1="77.2356" y1="64.8006" x2="77.2356" y2="87.9453" gradientUnits="userSpaceOnUse">
<stop stop-color="#1073D8"/>
<stop offset="0.0078125" stop-color="#1073D8"/>
<stop offset="0.015625" stop-color="#1173D9"/>
<stop offset="0.0234375" stop-color="#1274D9"/>
<stop offset="0.03125" stop-color="#1274D9"/>
<stop offset="0.0390625" stop-color="#1375DA"/>
<stop offset="0.046875" stop-color="#1375DA"/>
<stop offset="0.0546875" stop-color="#1476DA"/>
<stop offset="0.0625" stop-color="#1476DA"/>
<stop offset="0.0703125" stop-color="#1576DB"/>
<stop offset="0.078125" stop-color="#1577DB"/>
<stop offset="0.0859375" stop-color="#1677DB"/>
<stop offset="0.09375" stop-color="#1778DC"/>
<stop offset="0.101562" stop-color="#1778DC"/>
<stop offset="0.109375" stop-color="#1879DC"/>
<stop offset="0.117188" stop-color="#1879DD"/>
<stop offset="0.125" stop-color="#1979DD"/>
<stop offset="0.132812" stop-color="#197ADD"/>
<stop offset="0.140625" stop-color="#1A7ADD"/>
<stop offset="0.148437" stop-color="#1A7BDE"/>
<stop offset="0.15625" stop-color="#1B7BDE"/>
<stop offset="0.164062" stop-color="#1C7CDE"/>
<stop offset="0.171875" stop-color="#1C7CDF"/>
<stop offset="0.179687" stop-color="#1D7CDF"/>
<stop offset="0.1875" stop-color="#1D7DDF"/>
<stop offset="0.195312" stop-color="#1E7DE0"/>
<stop offset="0.203125" stop-color="#1E7EE0"/>
<stop offset="0.210937" stop-color="#1F7EE0"/>
<stop offset="0.21875" stop-color="#1F7FE1"/>
<stop offset="0.226562" stop-color="#207FE1"/>
<stop offset="0.234375" stop-color="#217FE1"/>
<stop offset="0.242187" stop-color="#2180E1"/>
<stop offset="0.25" stop-color="#2280E2"/>
<stop offset="0.257813" stop-color="#2281E2"/>
<stop offset="0.265625" stop-color="#2381E2"/>
<stop offset="0.273438" stop-color="#2382E3"/>
<stop offset="0.28125" stop-color="#2482E3"/>
<stop offset="0.289063" stop-color="#2482E3"/>
<stop offset="0.296875" stop-color="#2583E4"/>
<stop offset="0.304688" stop-color="#2583E4"/>
<stop offset="0.3125" stop-color="#2684E4"/>
<stop offset="0.320312" stop-color="#2784E4"/>
<stop offset="0.328125" stop-color="#2785E5"/>
<stop offset="0.335938" stop-color="#2885E5"/>
<stop offset="0.34375" stop-color="#2885E5"/>
<stop offset="0.351562" stop-color="#2986E6"/>
<stop offset="0.359375" stop-color="#2986E6"/>
<stop offset="0.367188" stop-color="#2A87E6"/>
<stop offset="0.375" stop-color="#2A87E7"/>
<stop offset="0.382813" stop-color="#2B88E7"/>
<stop offset="0.390625" stop-color="#2C88E7"/>
<stop offset="0.398438" stop-color="#2C89E8"/>
<stop offset="0.40625" stop-color="#2D89E8"/>
<stop offset="0.414062" stop-color="#2D89E8"/>
<stop offset="0.421875" stop-color="#2E8AE8"/>
<stop offset="0.429688" stop-color="#2E8AE9"/>
<stop offset="0.4375" stop-color="#2F8BE9"/>
<stop offset="0.445312" stop-color="#2F8BE9"/>
<stop offset="0.453125" stop-color="#308CEA"/>
<stop offset="0.460938" stop-color="#318CEA"/>
<stop offset="0.46875" stop-color="#318CEA"/>
<stop offset="0.476562" stop-color="#328DEB"/>
<stop offset="0.484375" stop-color="#328DEB"/>
<stop offset="0.492188" stop-color="#338EEB"/>
<stop offset="0.5" stop-color="#338EEB"/>
<stop offset="0.507812" stop-color="#348FEC"/>
<stop offset="0.515625" stop-color="#348FEC"/>
<stop offset="0.523437" stop-color="#358FEC"/>
<stop offset="0.53125" stop-color="#3690ED"/>
<stop offset="0.539062" stop-color="#3690ED"/>
<stop offset="0.546875" stop-color="#3791ED"/>
<stop offset="0.554687" stop-color="#3791EE"/>
<stop offset="0.5625" stop-color="#3892EE"/>
<stop offset="0.570312" stop-color="#3892EE"/>
<stop offset="0.578125" stop-color="#3992EE"/>
<stop offset="0.585938" stop-color="#3993EF"/>
<stop offset="0.59375" stop-color="#3A93EF"/>
<stop offset="0.601562" stop-color="#3B94EF"/>
<stop offset="0.609375" stop-color="#3B94F0"/>
<stop offset="0.617187" stop-color="#3C95F0"/>
<stop offset="0.625" stop-color="#3C95F0"/>
<stop offset="0.632812" stop-color="#3D95F1"/>
<stop offset="0.640625" stop-color="#3D96F1"/>
<stop offset="0.648437" stop-color="#3E96F1"/>
<stop offset="0.65625" stop-color="#3E97F2"/>
<stop offset="0.664062" stop-color="#3F97F2"/>
<stop offset="0.671875" stop-color="#3F98F2"/>
<stop offset="0.679687" stop-color="#4098F2"/>
<stop offset="0.6875" stop-color="#4199F3"/>
<stop offset="0.695312" stop-color="#4199F3"/>
<stop offset="0.703125" stop-color="#4299F3"/>
<stop offset="0.710937" stop-color="#429AF4"/>
<stop offset="0.71875" stop-color="#439AF4"/>
<stop offset="0.726562" stop-color="#439BF4"/>
<stop offset="0.734375" stop-color="#449BF5"/>
<stop offset="0.742187" stop-color="#449CF5"/>
<stop offset="0.75" stop-color="#459CF5"/>
<stop offset="0.757812" stop-color="#469CF5"/>
<stop offset="0.765625" stop-color="#469DF6"/>
<stop offset="0.773437" stop-color="#479DF6"/>
<stop offset="0.78125" stop-color="#479EF6"/>
<stop offset="0.789062" stop-color="#489EF7"/>
<stop offset="0.796875" stop-color="#489FF7"/>
<stop offset="0.804688" stop-color="#499FF7"/>
<stop offset="0.8125" stop-color="#499FF8"/>
<stop offset="0.820312" stop-color="#4AA0F8"/>
<stop offset="0.828125" stop-color="#4BA0F8"/>
<stop offset="0.835937" stop-color="#4BA1F8"/>
<stop offset="0.84375" stop-color="#4CA1F9"/>
<stop offset="0.851562" stop-color="#4CA2F9"/>
<stop offset="0.859375" stop-color="#4DA2F9"/>
<stop offset="0.867187" stop-color="#4DA2FA"/>
<stop offset="0.875" stop-color="#4EA3FA"/>
<stop offset="0.882812" stop-color="#4EA3FA"/>
<stop offset="0.890625" stop-color="#4FA4FB"/>
<stop offset="0.898438" stop-color="#50A4FB"/>
<stop offset="0.90625" stop-color="#50A5FB"/>
<stop offset="0.914062" stop-color="#51A5FC"/>
<stop offset="0.921875" stop-color="#51A5FC"/>
<stop offset="0.929688" stop-color="#52A6FC"/>
<stop offset="0.9375" stop-color="#52A6FC"/>
<stop offset="0.945312" stop-color="#53A7FD"/>
<stop offset="0.953125" stop-color="#53A7FD"/>
<stop offset="0.960938" stop-color="#54A8FD"/>
<stop offset="0.96875" stop-color="#55A8FE"/>
<stop offset="0.976562" stop-color="#55A8FE"/>
<stop offset="0.984375" stop-color="#56A9FE"/>
<stop offset="0.992187" stop-color="#56A9FF"/>
<stop offset="1" stop-color="#57AAFF"/>
</linearGradient>
<linearGradient id="paint4_linear_136_62" x1="64.7235" y1="36.6441" x2="64.7235" y2="87.9453" gradientUnits="userSpaceOnUse">
<stop stop-color="#1375DA"/>
<stop offset="0.0078125" stop-color="#1375DA"/>
<stop offset="0.015625" stop-color="#1375DA"/>
<stop offset="0.0234375" stop-color="#1476DA"/>
<stop offset="0.03125" stop-color="#1476DB"/>
<stop offset="0.0390625" stop-color="#1576DB"/>
<stop offset="0.046875" stop-color="#1577DB"/>
<stop offset="0.0546875" stop-color="#1677DB"/>
<stop offset="0.0625" stop-color="#1778DC"/>
<stop offset="0.0703125" stop-color="#1778DC"/>
<stop offset="0.078125" stop-color="#1878DC"/>
<stop offset="0.0859375" stop-color="#1879DD"/>
<stop offset="0.09375" stop-color="#1979DD"/>
<stop offset="0.101563" stop-color="#197ADD"/>
<stop offset="0.109375" stop-color="#1A7ADD"/>
<stop offset="0.117188" stop-color="#1A7ADE"/>
<stop offset="0.125" stop-color="#1B7BDE"/>
<stop offset="0.132812" stop-color="#1B7BDE"/>
<stop offset="0.140625" stop-color="#1C7CDF"/>
<stop offset="0.148437" stop-color="#1C7CDF"/>
<stop offset="0.15625" stop-color="#1D7CDF"/>
<stop offset="0.164062" stop-color="#1D7DDF"/>
<stop offset="0.171875" stop-color="#1E7DE0"/>
<stop offset="0.179688" stop-color="#1E7EE0"/>
<stop offset="0.1875" stop-color="#1F7EE0"/>
<stop offset="0.195312" stop-color="#1F7EE1"/>
<stop offset="0.203125" stop-color="#207FE1"/>
<stop offset="0.210937" stop-color="#207FE1"/>
<stop offset="0.21875" stop-color="#2180E1"/>
<stop offset="0.226562" stop-color="#2180E2"/>
<stop offset="0.234375" stop-color="#2280E2"/>
<stop offset="0.242187" stop-color="#2281E2"/>
<stop offset="0.25" stop-color="#2381E3"/>
<stop offset="0.257812" stop-color="#2382E3"/>
<stop offset="0.265625" stop-color="#2482E3"/>
<stop offset="0.273438" stop-color="#2582E3"/>
<stop offset="0.28125" stop-color="#2583E4"/>
<stop offset="0.289062" stop-color="#2683E4"/>
<stop offset="0.296875" stop-color="#2684E4"/>
<stop offset="0.304688" stop-color="#2784E5"/>
<stop offset="0.3125" stop-color="#2784E5"/>
<stop offset="0.320312" stop-color="#2885E5"/>
<stop offset="0.328125" stop-color="#2885E5"/>
<stop offset="0.335937" stop-color="#2986E6"/>
<stop offset="0.34375" stop-color="#2986E6"/>
<stop offset="0.351563" stop-color="#2A86E6"/>
<stop offset="0.359375" stop-color="#2A87E6"/>
<stop offset="0.367188" stop-color="#2B87E7"/>
<stop offset="0.375" stop-color="#2B88E7"/>
<stop offset="0.382812" stop-color="#2C88E7"/>
<stop offset="0.390625" stop-color="#2C88E8"/>
<stop offset="0.398438" stop-color="#2D89E8"/>
<stop offset="0.40625" stop-color="#2D89E8"/>
<stop offset="0.414062" stop-color="#2E8AE8"/>
<stop offset="0.421875" stop-color="#2E8AE9"/>
<stop offset="0.429687" stop-color="#2F8AE9"/>
<stop offset="0.4375" stop-color="#2F8BE9"/>
<stop offset="0.445313" stop-color="#308BEA"/>
<stop offset="0.453125" stop-color="#308CEA"/>
<stop offset="0.460938" stop-color="#318CEA"/>
<stop offset="0.46875" stop-color="#318CEA"/>
<stop offset="0.476563" stop-color="#328DEB"/>
<stop offset="0.484375" stop-color="#338DEB"/>
<stop offset="0.492188" stop-color="#338EEB"/>
<stop offset="0.5" stop-color="#348EEC"/>
<stop offset="0.507813" stop-color="#348EEC"/>
<stop offset="0.515625" stop-color="#358FEC"/>
<stop offset="0.523438" stop-color="#358FEC"/>
<stop offset="0.53125" stop-color="#3690ED"/>
<stop offset="0.539063" stop-color="#3690ED"/>
<stop offset="0.546875" stop-color="#3790ED"/>
<stop offset="0.554688" stop-color="#3791EE"/>
<stop offset="0.5625" stop-color="#3891EE"/>
<stop offset="0.570312" stop-color="#3892EE"/>
<stop offset="0.578125" stop-color="#3992EE"/>
<stop offset="0.585938" stop-color="#3992EF"/>
<stop offset="0.59375" stop-color="#3A93EF"/>
<stop offset="0.601562" stop-color="#3A93EF"/>
<stop offset="0.609375" stop-color="#3B94F0"/>
<stop offset="0.617188" stop-color="#3B94F0"/>
<stop offset="0.625" stop-color="#3C95F0"/>
<stop offset="0.632812" stop-color="#3C95F0"/>
<stop offset="0.640625" stop-color="#3D95F1"/>
<stop offset="0.648437" stop-color="#3D96F1"/>
<stop offset="0.65625" stop-color="#3E96F1"/>
<stop offset="0.664062" stop-color="#3E97F2"/>
<stop offset="0.671875" stop-color="#3F97F2"/>
<stop offset="0.679687" stop-color="#3F97F2"/>
<stop offset="0.6875" stop-color="#4098F2"/>
<stop offset="0.695313" stop-color="#4198F3"/>
<stop offset="0.703125" stop-color="#4199F3"/>
<stop offset="0.710938" stop-color="#4299F3"/>
<stop offset="0.71875" stop-color="#4299F4"/>
<stop offset="0.726563" stop-color="#439AF4"/>
<stop offset="0.734375" stop-color="#439AF4"/>
<stop offset="0.742188" stop-color="#449BF4"/>
<stop offset="0.75" stop-color="#449BF5"/>
<stop offset="0.757812" stop-color="#459BF5"/>
<stop offset="0.765625" stop-color="#459CF5"/>
<stop offset="0.773438" stop-color="#469CF6"/>
<stop offset="0.78125" stop-color="#469DF6"/>
<stop offset="0.789062" stop-color="#479DF6"/>
<stop offset="0.796875" stop-color="#479DF6"/>
<stop offset="0.804688" stop-color="#489EF7"/>
<stop offset="0.8125" stop-color="#489EF7"/>
<stop offset="0.820312" stop-color="#499FF7"/>
<stop offset="0.828125" stop-color="#499FF8"/>
<stop offset="0.835938" stop-color="#4A9FF8"/>
<stop offset="0.84375" stop-color="#4AA0F8"/>
<stop offset="0.851562" stop-color="#4BA0F8"/>
<stop offset="0.859375" stop-color="#4BA1F9"/>
<stop offset="0.867187" stop-color="#4CA1F9"/>
<stop offset="0.875" stop-color="#4CA1F9"/>
<stop offset="0.882813" stop-color="#4DA2FA"/>
<stop offset="0.890625" stop-color="#4DA2FA"/>
<stop offset="0.898438" stop-color="#4EA3FA"/>
<stop offset="0.90625" stop-color="#4FA3FA"/>
<stop offset="0.914063" stop-color="#4FA3FB"/>
<stop offset="0.921875" stop-color="#50A4FB"/>
<stop offset="0.929688" stop-color="#50A4FB"/>
<stop offset="0.9375" stop-color="#51A5FC"/>
<stop offset="0.945313" stop-color="#51A5FC"/>
<stop offset="0.953125" stop-color="#52A5FC"/>
<stop offset="0.960938" stop-color="#52A6FC"/>
<stop offset="0.96875" stop-color="#53A6FD"/>
<stop offset="0.976562" stop-color="#53A7FD"/>
<stop offset="0.984375" stop-color="#54A7FD"/>
<stop offset="0.992188" stop-color="#54A7FE"/>
<stop offset="1" stop-color="#55A8FE"/>
</linearGradient>
<linearGradient id="paint5_linear_136_62" x1="110.611" y1="1.00029" x2="38.248" y2="78.6784" gradientUnits="userSpaceOnUse">
<stop stop-color="#50A4FB"/>
<stop offset="0.015625" stop-color="#50A4FB"/>
<stop offset="0.03125" stop-color="#4FA3FA"/>
<stop offset="0.046875" stop-color="#4EA3FA"/>
<stop offset="0.0625" stop-color="#4DA2F9"/>
<stop offset="0.078125" stop-color="#4CA1F9"/>
<stop offset="0.09375" stop-color="#4BA1F8"/>
<stop offset="0.109375" stop-color="#4BA0F8"/>
<stop offset="0.125" stop-color="#4A9FF8"/>
<stop offset="0.140625" stop-color="#499EF7"/>
<stop offset="0.15625" stop-color="#489EF7"/>
<stop offset="0.171875" stop-color="#479DF6"/>
<stop offset="0.1875" stop-color="#469CF6"/>
<stop offset="0.203125" stop-color="#459CF5"/>
<stop offset="0.21875" stop-color="#449BF5"/>
<stop offset="0.234375" stop-color="#439AF4"/>
<stop offset="0.25" stop-color="#439AF4"/>
<stop offset="0.265625" stop-color="#4299F3"/>
<stop offset="0.28125" stop-color="#4198F3"/>
<stop offset="0.296875" stop-color="#4098F2"/>
<stop offset="0.3125" stop-color="#3F97F2"/>
<stop offset="0.328125" stop-color="#3E96F1"/>
<stop offset="0.34375" stop-color="#3D96F1"/>
<stop offset="0.359375" stop-color="#3C95F0"/>
<stop offset="0.375" stop-color="#3C94F0"/>
<stop offset="0.390625" stop-color="#3B94EF"/>
<stop offset="0.40625" stop-color="#3A93EF"/>
<stop offset="0.421875" stop-color="#3992EE"/>
<stop offset="0.4375" stop-color="#3892EE"/>
<stop offset="0.453125" stop-color="#3791ED"/>
<stop offset="0.459347" stop-color="#3690ED"/>
<stop offset="0.46875" stop-color="#3690EC"/>
<stop offset="0.484375" stop-color="#3590EC"/>
<stop offset="0.5" stop-color="#348FEC"/>
<stop offset="0.515625" stop-color="#348EEB"/>
<stop offset="0.53125" stop-color="#338EEB"/>
<stop offset="0.540653" stop-color="#328DEA"/>
<stop offset="0.546875" stop-color="#318CEA"/>
<stop offset="0.5625" stop-color="#318CEA"/>
<stop offset="0.578125" stop-color="#308BE9"/>
<stop offset="0.59375" stop-color="#2F8BE9"/>
<stop offset="0.609375" stop-color="#2E8AE8"/>
<stop offset="0.625" stop-color="#2D89E8"/>
<stop offset="0.640625" stop-color="#2D89E7"/>
<stop offset="0.65625" stop-color="#2C88E7"/>
<stop offset="0.671875" stop-color="#2B87E6"/>
<stop offset="0.6875" stop-color="#2A87E6"/>
<stop offset="0.703125" stop-color="#2986E5"/>
<stop offset="0.71875" stop-color="#2885E5"/>
<stop offset="0.734375" stop-color="#2785E4"/>
<stop offset="0.75" stop-color="#2684E4"/>
<stop offset="0.765625" stop-color="#2583E3"/>
<stop offset="0.78125" stop-color="#2583E3"/>
<stop offset="0.796875" stop-color="#2482E2"/>
<stop offset="0.8125" stop-color="#2381E2"/>
<stop offset="0.828125" stop-color="#2281E1"/>
<stop offset="0.84375" stop-color="#2180E1"/>
<stop offset="0.859375" stop-color="#207FE1"/>
<stop offset="0.875" stop-color="#1F7FE0"/>
<stop offset="0.890625" stop-color="#1E7EE0"/>
<stop offset="0.90625" stop-color="#1E7DDF"/>
<stop offset="0.921875" stop-color="#1D7DDF"/>
<stop offset="0.9375" stop-color="#1C7CDE"/>
<stop offset="0.953125" stop-color="#1B7BDE"/>
<stop offset="0.96875" stop-color="#1A7BDD"/>
<stop offset="0.984375" stop-color="#197ADD"/>
<stop offset="1" stop-color="#1879DC"/>
</linearGradient>
</defs>
</svg>
