<svg width="707" height="634" viewBox="0 0 707 634" fill="none" xmlns="http://www.w3.org/2000/svg">
<ellipse opacity="0.55" cx="353.5" cy="317" rx="353.5" ry="317" fill="url(#paint0_linear_150_163)"/>
<path d="M497 410C497 488.977 432.977 553 354 553C275.023 553 211 488.977 211 410C211 331.023 275.023 267 354 267C432.977 267 497 331.023 497 410Z" fill="url(#paint1_linear_150_163)"/>
<path fill-rule="evenodd" clip-rule="evenodd" d="M293 384.25C293 350.423 320.311 323 354 323C387.689 323 415 350.423 415 384.25V436.75C415 470.577 387.689 498 354 498C320.311 498 293 470.577 293 436.75V384.25ZM354 384.25C355.156 384.25 356.264 384.711 357.081 385.531C357.898 386.352 358.357 387.465 358.357 388.625V431.443C358.357 441.322 360.745 447.919 364.753 452.062C368.736 456.184 375.036 458.625 384.5 458.625C385.656 458.625 386.764 459.086 387.581 459.906C388.398 460.727 388.857 461.84 388.857 463C388.857 464.16 388.398 465.273 387.581 466.094C386.764 466.914 385.656 467.375 384.5 467.375C373.629 467.375 364.679 464.553 358.497 458.157C352.344 451.787 349.643 442.604 349.643 431.443V388.625C349.643 387.465 350.102 386.352 350.919 385.531C351.736 384.711 352.844 384.25 354 384.25ZM354 344.875C332.275 344.875 310.429 361.347 310.429 385.278V440.18C310.429 445.627 311.23 451.249 312.934 456.21C314.62 461.11 317.335 465.756 321.457 468.687C321.923 469.032 322.452 469.279 323.014 469.416C323.577 469.552 324.16 469.575 324.732 469.483C325.303 469.39 325.85 469.184 326.341 468.878C326.832 468.571 327.257 468.168 327.592 467.695C327.927 467.221 328.164 466.685 328.291 466.118C328.417 465.551 328.429 464.965 328.327 464.393C328.226 463.821 328.011 463.275 327.697 462.788C327.383 462.3 326.975 461.88 326.498 461.552C324.406 460.064 322.528 457.291 321.169 453.353C319.836 449.468 319.143 444.831 319.143 440.176V385.283C319.143 367.288 335.905 353.625 354 353.625C372.095 353.625 388.857 367.288 388.857 385.278V430.38C388.857 433.272 388.273 435.503 387.402 436.864C386.683 437.992 385.733 438.644 384.025 438.644C382.208 438.644 380.836 437.883 379.807 436.544C378.714 435.122 377.964 432.957 377.964 430.376V389.662C377.976 383.189 375.472 376.967 370.984 372.319C368.778 370.035 366.139 368.218 363.222 366.976C360.304 365.734 357.169 365.092 354 365.087C350.831 365.092 347.695 365.735 344.778 366.978C341.861 368.221 339.221 370.039 337.016 372.324C332.528 376.971 330.024 383.193 330.036 389.666V440.486C330.036 455.331 337.696 469.799 354.684 475.88C355.773 476.269 356.972 476.207 358.015 475.709C359.059 475.21 359.863 474.316 360.25 473.222C360.637 472.129 360.576 470.925 360.08 469.877C359.583 468.829 358.692 468.022 357.603 467.633C344.571 462.974 338.75 452.172 338.75 440.486V389.662C338.738 385.471 340.354 381.44 343.255 378.427C344.649 376.979 346.319 375.827 348.164 375.038C350.01 374.25 351.994 373.842 354 373.837C358.009 373.837 361.873 375.474 364.745 378.431C367.646 381.445 369.262 385.475 369.25 389.666V430.384C369.25 434.545 370.439 438.697 372.919 441.908C374.215 443.63 375.894 445.024 377.823 445.977C379.751 446.931 381.875 447.418 384.025 447.399C388.853 447.399 392.5 445.102 394.739 441.593C396.831 438.312 397.571 434.226 397.571 430.384V385.278C397.571 361.347 375.725 344.875 354 344.875Z" fill="url(#paint2_linear_150_163)"/>
<defs>
<linearGradient id="paint0_linear_150_163" x1="353.5" y1="0" x2="353.5" y2="655.266" gradientUnits="userSpaceOnUse">
<stop offset="0.479167" stop-color="#03112B"/>
<stop offset="0.698379" stop-color="#7A176A"/>
<stop offset="0.894883" stop-color="#E41CC4"/>
<stop offset="0.977427" stop-color="#FF04D7"/>
</linearGradient>
<linearGradient id="paint1_linear_150_163" x1="125.338" y1="290.375" x2="125.338" y2="576.375" gradientUnits="userSpaceOnUse">
<stop offset="0.177083" stop-color="#03112B"/>
<stop offset="0.479167" stop-color="#56174C"/>
<stop offset="0.651042" stop-color="#7A176A"/>
<stop offset="0.833333" stop-color="#E41CC4"/>
<stop offset="0.901042" stop-color="#FF00D6"/>
</linearGradient>
<linearGradient id="paint2_linear_150_163" x1="293" y1="357.539" x2="415.409" y2="459.284" gradientUnits="userSpaceOnUse">
<stop stop-color="#56A3EB"/>
<stop offset="0.495192" stop-color="#C172ED"/>
<stop offset="1" stop-color="#E176AD"/>
</linearGradient>
</defs>
</svg>
