<svg width="707" height="634" viewBox="0 0 707 634" fill="none" xmlns="http://www.w3.org/2000/svg">
<ellipse opacity="0.55" cx="353.5" cy="317" rx="353.5" ry="317" fill="url(#paint0_linear_150_140)"/>
<circle cx="355" cy="410" r="143" fill="url(#paint1_linear_150_140)"/>
<mask id="mask0_150_140" style="mask-type:luminance" maskUnits="userSpaceOnUse" x="310" y="384" width="89" height="89">
<path d="M310.1 384.1H398.9V472.9H310.1V384.1Z" fill="white"/>
</mask>
<g mask="url(#mask0_150_140)">
<path fill-rule="evenodd" clip-rule="evenodd" d="M388.414 384.1H320.586C314.819 384.1 310.1 388.819 310.1 394.586V462.414C310.1 468.181 314.819 472.9 320.586 472.9H388.414C394.181 472.9 398.9 468.181 398.9 462.414V394.586C398.9 388.819 394.181 384.1 388.414 384.1ZM395.275 462.414C395.275 466.188 392.188 469.275 388.414 469.275H320.586C316.812 469.275 313.725 466.188 313.725 462.414V394.586C313.725 390.812 316.812 387.725 320.586 387.725H388.413C392.188 387.725 395.275 390.812 395.275 394.586V462.414ZM351.905 415.526H346.715V394.766H351.905V399.957H357.095V405.147H351.905V415.526ZM388.234 394.766H367.474V415.526H388.234V394.766ZM383.043 410.335H372.665V399.957H383.043V410.335ZM320.766 462.234H341.526V441.474H320.766V462.234ZM325.957 446.665H336.335V457.043H325.957V446.665ZM383.043 425.905H388.234V431.095H383.043V436.285H377.853V425.907H372.662V431.097H367.472V441.475H377.85V451.854H367.472V446.665H357.093V457.043H351.903V446.665H346.713V441.474H357.091V436.284H351.901V431.093H346.711V436.284H325.957V420.715H331.147V431.093H336.338V425.903H351.907V420.713H357.097V431.091H362.287V425.901H367.478V420.711H383.047V425.905H383.043ZM357.095 410.335H362.285V415.526H357.095V410.335ZM388.234 446.665V462.234H362.284V457.043H383.043V446.665H388.234ZM341.526 394.766H320.766V415.526H341.526V394.766ZM336.335 410.335H325.957V399.957H336.335V410.335Z" fill="#F2F3F4"/>
</g>
<mask id="mask1_150_140" style="mask-type:luminance" maskUnits="userSpaceOnUse" x="301" y="375" width="107" height="107">
<path d="M301.158 375.158H407.928V481.928H301.158V375.158Z" fill="white"/>
</mask>
<g mask="url(#mask1_150_140)">
<path d="M407.839 401.277V375.158H381.719V381.137H401.86V401.277H407.839ZM407.839 455.719V481.839H381.719V475.86H401.86V455.719H407.839ZM301.158 455.719V481.839H327.277V475.86H307.137V455.719H301.158ZM301.158 401.277V375.158H327.277V381.137H307.137V401.277H301.158Z" fill="#F2F3F4"/>
</g>
<defs>
<linearGradient id="paint0_linear_150_140" x1="353.5" y1="0" x2="353.5" y2="655.266" gradientUnits="userSpaceOnUse">
<stop offset="0.479167" stop-color="#03112B"/>
<stop offset="0.698379" stop-color="#021F3A"/>
<stop offset="0.894883" stop-color="#0269C8"/>
<stop offset="0.977427" stop-color="#07E9F8"/>
</linearGradient>
<linearGradient id="paint1_linear_150_140" x1="355" y1="267" x2="355" y2="553" gradientUnits="userSpaceOnUse">
<stop offset="0.297747" stop-color="#03112B"/>
<stop offset="0.661458" stop-color="#021F3A"/>
<stop offset="0.854167" stop-color="#0269C8"/>
<stop offset="0.927083" stop-color="#5FB2FE"/>
<stop offset="0.958896" stop-color="#07E9F8"/>
<stop offset="0.989483" stop-color="#FCFCFC"/>
<stop offset="0.989583" stop-color="#07E9F8"/>
</linearGradient>
</defs>
</svg>
