<svg width="20" height="21" viewBox="0 0 20 21" fill="none" xmlns="http://www.w3.org/2000/svg">
<path d="M5.80688 8H5.80888L14.0109 16.25L5.80688 8Z" stroke="black" stroke-width="2"/>
<path d="M15.714 15.5C16.977 15.5 18 16.507 18 17.75C18 18.993 16.977 20 15.714 20C14.452 20 13.429 18.993 13.429 17.75C13.429 16.507 14.452 15.5 15.714 15.5ZM14.193 8H14.191L5.98999 16.25L14.193 8Z" stroke="black" stroke-width="2"/>
<path d="M4.286 15.5C3.023 15.5 2 16.507 2 17.75C2 18.993 3.023 20 4.286 20C5.548 20 6.571 18.993 6.571 17.75C6.571 16.507 5.548 15.5 4.286 15.5Z" stroke="black" stroke-width="2"/>
<path d="M19 13V1H1V13" stroke="black" stroke-width="2" stroke-linecap="square"/>
</svg>
